{"glyphs":{"0":{"ha":1231,"x_min":0,"x_max":0,"o":"m 615 -14 b 46 488 229 -14 46 164 b 615 986 46 810 229 986 b 1185 488 1000 986 1185 808 b 615 -14 1185 165 1000 -14 m 615 196 b 935 488 835 196 935 306 b 615 776 935 668 835 776 b 296 488 396 776 296 669 b 615 196 296 304 396 196 "},"1":{"ha":1036,"x_min":0,"x_max":0,"o":"m 976 210 l 976 0 l 60 0 l 60 210 l 394 210 l 396 668 b 60 575 290 575 161 575 l 60 786 b 393 972 203 786 393 786 l 643 972 l 643 210 "},"2":{"ha":1194,"x_min":0,"x_max":0,"o":"m 1149 681 b 396 210 1149 304 457 403 l 1135 210 l 1135 0 l 46 0 l 46 126 b 899 661 46 531 899 440 b 632 776 899 742 847 776 b 318 590 417 776 318 744 l 68 590 b 618 986 68 914 296 986 b 1149 681 953 986 1149 922 "},"3":{"ha":1194,"x_min":0,"x_max":0,"o":"m 999 486 b 1149 274 1092 442 1149 375 b 611 -14 1149 58 953 -14 b 46 368 274 -14 46 58 l 296 368 b 625 196 296 213 411 196 b 899 306 824 196 899 213 b 486 411 899 403 824 411 l 486 561 b 899 667 817 561 899 569 b 625 776 899 751 840 776 b 296 604 388 776 296 751 l 46 604 b 611 986 46 914 274 986 b 1149 699 953 986 1149 914 b 999 486 1149 597 1092 531 "},"4":{"ha":1250,"x_min":0,"x_max":0,"o":"m 1190 158 l 996 158 l 996 0 l 746 0 l 746 158 l 60 158 l 60 369 l 746 972 l 996 972 l 996 369 l 1190 369 m 746 369 l 746 722 l 329 369 "},"5":{"ha":1194,"x_min":0,"x_max":0,"o":"m 749 656 b 1149 329 1000 656 1149 538 b 618 -14 1149 88 943 -14 b 46 338 296 -14 46 50 l 296 338 b 625 196 296 228 411 196 b 899 357 832 196 899 258 b 658 513 899 449 849 513 b 300 426 563 513 467 493 l 94 467 l 219 972 l 1079 972 l 1079 774 l 406 774 l 343 567 b 749 656 486 628 590 656 "},"6":{"ha":1231,"x_min":0,"x_max":0,"o":"m 703 656 b 1171 326 986 656 1171 561 b 643 -14 1171 100 986 -14 b 60 463 226 -14 60 149 b 585 986 60 865 299 986 b 1106 928 826 986 988 953 l 1106 729 b 646 788 968 756 826 788 b 315 550 449 788 340 747 b 703 656 390 608 519 656 m 615 185 b 921 347 851 185 921 246 b 615 508 921 449 853 508 b 310 347 401 508 310 450 b 615 185 310 246 394 185 "},"7":{"ha":1088,"x_min":0,"x_max":0,"o":"m 1060 972 l 1060 763 b 492 0 664 568 492 250 l 242 0 b 714 763 242 250 360 568 l 28 763 l 28 972 "},"8":{"ha":1231,"x_min":0,"x_max":0,"o":"m 982 551 b 1185 289 1122 501 1185 413 b 615 -14 1185 94 1047 -14 b 46 289 182 -14 46 93 b 249 551 46 413 107 501 b 143 731 179 593 143 653 b 615 986 143 906 279 986 b 1088 731 950 986 1088 906 b 982 551 1088 653 1051 593 m 615 806 b 369 711 424 806 369 779 b 615 617 369 643 422 617 b 861 711 807 617 861 643 b 615 806 861 779 807 806 m 615 179 b 935 318 860 179 935 224 b 615 454 935 410 861 454 b 296 318 369 454 296 411 b 615 179 296 224 371 179 "},"9":{"ha":1203,"x_min":0,"x_max":0,"o":"m 574 986 b 1157 510 990 986 1157 824 b 632 -14 1157 107 918 -14 b 111 44 390 -14 229 19 l 111 243 b 571 185 249 217 390 185 b 901 422 768 185 876 225 b 514 317 826 364 697 317 b 46 646 231 317 46 411 b 574 986 46 872 231 986 m 601 464 b 907 625 815 464 907 522 b 601 788 907 726 822 788 b 296 625 365 788 296 726 b 601 464 296 524 364 464 "},"A":{"ha":1433,"x_min":0,"x_max":0,"o":"m 1007 207 l 425 207 l 321 0 l 46 0 l 547 972 l 885 972 l 1388 0 l 1111 0 m 914 393 l 717 788 l 518 393 "},"Á":{"ha":1433,"x_min":0,"x_max":0,"o":"m 986 1197 l 446 1086 l 446 1250 l 986 1361 m 1007 207 l 425 207 l 321 0 l 46 0 l 547 972 l 885 972 l 1388 0 l 1111 0 m 914 393 l 717 788 l 518 393 "},"Ă":{"ha":1433,"x_min":0,"x_max":0,"o":"m 717 1065 b 401 1363 544 1065 401 1121 l 551 1363 b 717 1208 551 1250 614 1208 b 881 1363 819 1208 881 1250 l 1032 1363 b 717 1065 1032 1121 889 1065 m 1007 207 l 425 207 l 321 0 l 46 0 l 547 972 l 885 972 l 1388 0 l 1111 0 m 914 393 l 717 788 l 518 393 "},"Â":{"ha":1433,"x_min":0,"x_max":0,"o":"m 717 1197 l 429 1086 l 429 1250 l 717 1361 l 1004 1250 l 1004 1086 m 1007 207 l 425 207 l 321 0 l 46 0 l 547 972 l 885 972 l 1388 0 l 1111 0 m 914 393 l 717 788 l 518 393 "},"Ä":{"ha":1433,"x_min":0,"x_max":0,"o":"m 660 1108 l 414 1108 l 414 1311 l 660 1311 m 1021 1108 l 775 1108 l 775 1311 l 1021 1311 m 1007 207 l 425 207 l 321 0 l 46 0 l 547 972 l 885 972 l 1388 0 l 1111 0 m 914 393 l 717 788 l 518 393 "},"À":{"ha":1433,"x_min":0,"x_max":0,"o":"m 986 1086 l 446 1197 l 446 1361 l 986 1250 m 1007 207 l 425 207 l 321 0 l 46 0 l 547 972 l 885 972 l 1388 0 l 1111 0 m 914 393 l 717 788 l 518 393 "},"Ā":{"ha":1433,"x_min":0,"x_max":0,"o":"m 1042 1100 l 390 1100 l 390 1264 l 1042 1264 m 1007 207 l 425 207 l 321 0 l 46 0 l 547 972 l 885 972 l 1388 0 l 1111 0 m 914 393 l 717 788 l 518 393 "},"Ą":{"ha":1433,"x_min":0,"x_max":0,"o":"m 1224 -87 b 1446 -157 1224 -157 1331 -157 l 1446 -319 b 1046 -157 1186 -319 1046 -293 b 1157 0 1046 -92 1086 -46 l 1111 0 l 1007 207 l 425 207 l 321 0 l 46 0 l 547 972 l 885 972 l 1388 0 l 1289 0 b 1224 -87 1260 -24 1224 -51 m 914 393 l 717 788 l 518 393 "},"Å":{"ha":1433,"x_min":0,"x_max":0,"o":"m 717 1071 b 425 1254 499 1071 425 1139 b 717 1438 425 1369 499 1438 b 1008 1254 933 1438 1008 1369 b 717 1071 1008 1139 933 1071 m 717 1328 b 575 1254 626 1328 575 1310 b 717 1181 575 1199 626 1181 b 857 1254 807 1181 857 1199 b 717 1328 857 1310 807 1328 m 1007 207 l 425 207 l 321 0 l 46 0 l 547 972 l 885 972 l 1388 0 l 1111 0 m 914 393 l 717 788 l 518 393 "},"Ã":{"ha":1433,"x_min":0,"x_max":0,"o":"m 593 1208 b 517 1085 535 1208 517 1164 l 314 1085 b 532 1376 314 1239 375 1376 b 839 1239 690 1376 728 1239 b 917 1363 899 1239 917 1283 l 1119 1363 b 901 1071 1119 1208 1057 1071 b 593 1208 742 1071 704 1208 m 1007 207 l 425 207 l 321 0 l 46 0 l 547 972 l 885 972 l 1388 0 l 1111 0 m 914 393 l 717 788 l 518 393 "},"Æ":{"ha":1949,"x_min":0,"x_max":0,"o":"m 1125 774 l 1125 576 l 1903 576 l 1903 396 l 1125 396 l 1125 199 l 1903 199 l 1903 0 l 875 0 l 875 206 l 424 206 l 325 0 l 46 0 l 519 972 l 1903 972 l 1903 774 m 699 779 l 514 393 l 875 393 l 875 779 "},"B":{"ha":1311,"x_min":0,"x_max":0,"o":"m 1128 528 b 1265 283 1211 476 1265 396 b 949 0 1265 119 1169 0 l 60 0 l 60 972 l 915 972 b 1204 717 1136 972 1204 860 b 1128 528 1204 649 1176 582 m 310 590 l 825 590 l 826 590 b 954 692 893 590 954 590 b 825 792 954 792 893 792 l 310 792 m 888 193 b 1015 296 954 193 1015 193 b 888 399 1015 399 954 399 l 310 399 l 310 193 l 888 193 "},"C":{"ha":1310,"x_min":0,"x_max":0,"o":"m 46 488 b 657 986 46 810 229 986 b 1264 558 1044 986 1239 839 l 1010 558 b 657 776 986 715 865 776 b 296 488 403 776 296 686 b 657 196 296 288 404 196 b 1010 417 864 196 986 258 l 1264 417 b 657 -14 1239 135 1044 -14 b 46 488 229 -14 46 164 "},"Ć":{"ha":1310,"x_min":0,"x_max":0,"o":"m 925 1361 l 925 1197 l 385 1086 l 385 1250 m 46 488 b 657 986 46 810 229 986 b 1264 558 1044 986 1239 839 l 1010 558 b 657 776 986 715 865 776 b 296 488 403 776 296 686 b 657 196 296 288 404 196 b 1010 417 864 196 986 258 l 1264 417 b 657 -14 1239 135 1044 -14 b 46 488 229 -14 46 164 "},"Č":{"ha":1310,"x_min":0,"x_max":0,"o":"m 656 1089 l 368 1200 l 368 1364 l 656 1253 l 943 1364 l 943 1200 m 657 196 b 1010 417 864 196 986 258 l 1264 417 b 657 -14 1239 135 1044 -14 b 46 488 229 -14 46 164 b 657 986 46 810 229 986 b 1264 558 1044 986 1239 839 l 1010 558 b 657 776 986 715 865 776 b 296 488 403 776 296 686 b 657 196 296 288 404 196 "},"Ç":{"ha":1310,"x_min":0,"x_max":0,"o":"m 657 196 b 1010 417 864 196 986 258 l 1264 417 b 735 -11 1240 154 1071 7 l 718 -65 b 964 -161 801 -39 964 -26 b 525 -319 964 -319 739 -346 l 525 -201 b 785 -149 707 -228 785 -201 b 640 -129 785 -115 749 -104 l 558 -49 l 574 -11 b 46 488 206 11 46 186 b 657 986 46 810 229 986 b 1264 558 1044 986 1239 839 l 1010 558 b 657 776 986 715 865 776 b 296 488 403 776 296 686 b 657 196 296 288 404 196 "},"Ċ":{"ha":1310,"x_min":0,"x_max":0,"o":"m 790 1311 l 790 1108 l 521 1108 l 521 1311 m 46 488 b 657 986 46 810 229 986 b 1264 558 1044 986 1239 839 l 1010 558 b 657 776 986 715 865 776 b 296 488 403 776 296 686 b 657 196 296 288 404 196 b 1010 417 864 196 986 258 l 1264 417 b 657 -14 1239 135 1044 -14 b 46 488 229 -14 46 164 "},"D":{"ha":1283,"x_min":0,"x_max":0,"o":"m 765 972 b 1238 486 1017 972 1238 817 b 765 0 1238 156 1017 0 l 60 0 l 60 972 l 765 972 m 671 210 b 988 486 860 210 988 250 b 671 763 988 722 860 763 l 310 763 l 310 210 l 671 210 "},"Ð":{"ha":1390,"x_min":0,"x_max":0,"o":"m 867 972 b 1339 486 1118 972 1339 817 b 867 0 1339 156 1118 0 l 161 0 l 161 404 l 60 404 l 60 568 l 161 568 l 161 972 l 867 972 m 772 210 b 1089 486 961 210 1089 250 b 772 763 1089 722 961 763 l 411 763 l 411 568 l 726 568 l 726 404 l 411 404 l 411 210 l 772 210 "},"Ď":{"ha":1283,"x_min":0,"x_max":0,"o":"m 551 1089 l 264 1200 l 264 1364 l 551 1253 l 839 1364 l 839 1200 m 765 972 b 1238 486 1017 972 1238 817 b 765 0 1238 156 1017 0 l 60 0 l 60 972 l 765 972 m 671 210 b 988 486 860 210 988 250 b 671 763 988 722 860 763 l 310 763 l 310 210 l 671 210 "},"Đ":{"ha":1390,"x_min":0,"x_max":0,"o":"m 867 972 b 1339 486 1118 972 1339 817 b 867 0 1339 156 1118 0 l 161 0 l 161 404 l 60 404 l 60 568 l 161 568 l 161 972 l 867 972 m 772 210 b 1089 486 961 210 1089 250 b 772 763 1089 722 961 763 l 411 763 l 411 568 l 726 568 l 726 404 l 411 404 l 411 210 l 772 210 "},"E":{"ha":1133,"x_min":0,"x_max":0,"o":"m 310 774 l 310 576 l 1088 576 l 1088 396 l 310 396 l 310 199 l 1088 199 l 1088 0 l 60 0 l 60 972 l 1088 972 l 1088 774 "},"É":{"ha":1133,"x_min":0,"x_max":0,"o":"m 843 1197 l 303 1086 l 303 1250 l 843 1361 m 310 774 l 310 576 l 1088 576 l 1088 396 l 310 396 l 310 199 l 1088 199 l 1088 0 l 60 0 l 60 972 l 1088 972 l 1088 774 "},"Ě":{"ha":1133,"x_min":0,"x_max":0,"o":"m 574 1089 l 286 1200 l 286 1364 l 574 1253 l 861 1364 l 861 1200 m 310 774 l 310 576 l 1088 576 l 1088 396 l 310 396 l 310 199 l 1088 199 l 1088 0 l 60 0 l 60 972 l 1088 972 l 1088 774 "},"Ê":{"ha":1133,"x_min":0,"x_max":0,"o":"m 574 1197 l 286 1086 l 286 1250 l 574 1361 l 861 1250 l 861 1086 m 310 774 l 310 576 l 1088 576 l 1088 396 l 310 396 l 310 199 l 1088 199 l 1088 0 l 60 0 l 60 972 l 1088 972 l 1088 774 "},"Ë":{"ha":1133,"x_min":0,"x_max":0,"o":"m 517 1108 l 271 1108 l 271 1311 l 517 1311 m 878 1108 l 632 1108 l 632 1311 l 878 1311 m 310 774 l 310 576 l 1088 576 l 1088 396 l 310 396 l 310 199 l 1088 199 l 1088 0 l 60 0 l 60 972 l 1088 972 l 1088 774 "},"Ė":{"ha":1133,"x_min":0,"x_max":0,"o":"m 708 1108 l 439 1108 l 439 1311 l 708 1311 m 310 774 l 310 576 l 1088 576 l 1088 396 l 310 396 l 310 199 l 1088 199 l 1088 0 l 60 0 l 60 972 l 1088 972 l 1088 774 "},"È":{"ha":1133,"x_min":0,"x_max":0,"o":"m 843 1086 l 303 1197 l 303 1361 l 843 1250 m 310 774 l 310 576 l 1088 576 l 1088 396 l 310 396 l 310 199 l 1088 199 l 1088 0 l 60 0 l 60 972 l 1088 972 l 1088 774 "},"Ē":{"ha":1133,"x_min":0,"x_max":0,"o":"m 899 1100 l 247 1100 l 247 1264 l 899 1264 m 310 774 l 310 576 l 1088 576 l 1088 396 l 310 396 l 310 199 l 1088 199 l 1088 0 l 60 0 l 60 972 l 1088 972 l 1088 774 "},"Ę":{"ha":1133,"x_min":0,"x_max":0,"o":"m 897 -87 b 1119 -157 897 -157 1004 -157 l 1119 -319 b 719 -157 860 -319 719 -293 b 831 0 719 -92 760 -46 l 60 0 l 60 972 l 1088 972 l 1088 774 l 310 774 l 310 576 l 1088 576 l 1088 396 l 310 396 l 310 199 l 1088 199 l 1088 0 l 963 0 b 897 -87 933 -24 897 -51 "},"F":{"ha":1133,"x_min":0,"x_max":0,"o":"m 310 763 l 310 515 l 1004 515 l 1004 304 l 310 304 l 310 0 l 60 0 l 60 972 l 1088 972 l 1088 763 "},"G":{"ha":1310,"x_min":0,"x_max":0,"o":"m 647 521 l 1264 521 l 1264 0 l 1079 0 l 1068 153 b 624 -14 976 53 831 -14 b 46 486 265 -14 46 164 b 665 986 46 808 265 986 b 1264 593 1054 986 1249 835 l 1010 593 b 665 776 996 667 929 776 b 296 481 340 776 296 597 b 665 179 296 363 342 179 b 1010 358 907 179 1004 285 l 647 358 "},"Ğ":{"ha":1310,"x_min":0,"x_max":0,"o":"m 656 1065 b 340 1363 483 1065 340 1121 l 490 1363 b 656 1208 490 1250 553 1208 b 819 1363 758 1208 819 1250 l 971 1363 b 656 1065 971 1121 828 1065 m 647 521 l 1264 521 l 1264 0 l 1079 0 l 1068 153 b 624 -14 976 53 831 -14 b 46 486 265 -14 46 164 b 665 986 46 808 265 986 b 1264 593 1054 986 1249 835 l 1010 593 b 665 776 996 667 929 776 b 296 481 340 776 296 597 b 665 179 296 363 342 179 b 1010 358 907 179 1004 285 l 647 358 "},"Ģ":{"ha":1310,"x_min":0,"x_max":0,"o":"m 647 521 l 1264 521 l 1264 0 l 1079 0 l 1068 153 b 624 -14 976 53 831 -14 b 46 486 265 -14 46 164 b 665 986 46 808 265 986 b 1264 593 1054 986 1249 835 l 1010 593 b 665 776 996 667 929 776 b 296 481 340 776 296 597 b 665 179 296 363 342 179 b 1010 358 907 179 1004 285 l 647 358 m 549 -162 l 763 -162 l 763 -312 l 651 -465 l 549 -465 l 626 -312 l 549 -312 "},"Ġ":{"ha":1310,"x_min":0,"x_max":0,"o":"m 790 1108 l 521 1108 l 521 1311 l 790 1311 m 647 521 l 1264 521 l 1264 0 l 1079 0 l 1068 153 b 624 -14 976 53 831 -14 b 46 486 265 -14 46 164 b 665 986 46 808 265 986 b 1264 593 1054 986 1249 835 l 1010 593 b 665 776 996 667 929 776 b 296 481 340 776 296 597 b 665 179 296 363 342 179 b 1010 358 907 179 1004 285 l 647 358 "},"H":{"ha":1411,"x_min":0,"x_max":0,"o":"m 1351 972 l 1351 0 l 1101 0 l 1101 381 l 310 381 l 310 0 l 60 0 l 60 972 l 310 972 l 310 592 l 1101 592 l 1101 972 "},"Ħ":{"ha":1411,"x_min":0,"x_max":0,"o":"m 1400 710 l 1351 710 l 1351 0 l 1101 0 l 1101 381 l 310 381 l 310 0 l 60 0 l 60 710 l 11 710 l 11 874 l 60 874 l 60 972 l 310 972 l 310 874 l 1101 874 l 1101 972 l 1351 972 l 1351 874 l 1400 874 m 1101 710 l 310 710 l 310 592 l 1101 592 "},"I":{"ha":369,"x_min":0,"x_max":0,"o":"m 310 0 l 60 0 l 60 972 l 310 972 "},"Í":{"ha":369,"x_min":0,"x_max":0,"o":"m 454 1361 l 454 1197 l -86 1086 l -86 1250 m 310 0 l 60 0 l 60 972 l 310 972 "},"Î":{"ha":369,"x_min":0,"x_max":0,"o":"m 472 1250 l 472 1086 l 185 1197 l -103 1086 l -103 1250 l 185 1361 m 60 972 l 310 972 l 310 0 l 60 0 "},"Ï":{"ha":369,"x_min":0,"x_max":0,"o":"m 128 1311 l 128 1108 l -118 1108 l -118 1311 m 489 1311 l 489 1108 l 243 1108 l 243 1311 m 310 0 l 60 0 l 60 972 l 310 972 "},"İ":{"ha":369,"x_min":0,"x_max":0,"o":"m 319 1311 l 319 1108 l 50 1108 l 50 1311 m 310 0 l 60 0 l 60 972 l 310 972 "},"Ì":{"ha":369,"x_min":0,"x_max":0,"o":"m 454 1086 l -86 1197 l -86 1361 l 454 1250 m 310 0 l 60 0 l 60 972 l 310 972 "},"Ī":{"ha":369,"x_min":0,"x_max":0,"o":"m 510 1264 l 510 1100 l -142 1100 l -142 1264 m 310 0 l 60 0 l 60 972 l 310 972 "},"Į":{"ha":369,"x_min":0,"x_max":0,"o":"m 215 -87 b 438 -157 215 -157 322 -157 l 438 -319 b 38 -157 178 -319 38 -293 b 149 0 38 -92 78 -46 l 60 0 l 60 972 l 310 972 l 310 0 l 281 0 b 215 -87 251 -24 215 -51 "},"J":{"ha":1286,"x_min":0,"x_max":0,"o":"m 1226 488 b 643 -14 1226 150 1042 -14 b 60 488 243 -14 60 149 l 310 488 b 643 196 310 351 347 196 b 976 488 939 196 976 353 l 976 763 l 515 763 l 515 972 l 1226 972 "},"K":{"ha":1428,"x_min":0,"x_max":0,"o":"m 793 540 l 1382 0 l 1036 0 l 608 404 l 310 186 l 310 0 l 60 0 l 60 972 l 310 972 l 310 468 l 1003 972 l 1382 972 "},"Ķ":{"ha":1428,"x_min":0,"x_max":0,"o":"m 793 540 l 1382 0 l 1036 0 l 608 404 l 310 186 l 310 0 l 60 0 l 60 972 l 310 972 l 310 468 l 1003 972 l 1382 972 m 614 -162 l 828 -162 l 828 -312 l 717 -465 l 614 -465 l 692 -312 l 614 -312 "},"L":{"ha":1106,"x_min":0,"x_max":0,"o":"m 1060 210 l 1060 0 l 60 0 l 60 972 l 310 972 l 310 210 "},"Ĺ":{"ha":1106,"x_min":0,"x_max":0,"o":"m 600 1197 l 60 1086 l 60 1250 l 600 1361 m 1060 210 l 1060 0 l 60 0 l 60 972 l 310 972 l 310 210 "},"Ľ":{"ha":1106,"x_min":0,"x_max":0,"o":"m 331 1089 l 43 1200 l 43 1364 l 331 1253 l 618 1364 l 618 1200 m 1060 210 l 1060 0 l 60 0 l 60 972 l 310 972 l 310 210 "},"Ļ":{"ha":1106,"x_min":0,"x_max":0,"o":"m 1060 210 l 1060 0 l 60 0 l 60 972 l 310 972 l 310 210 m 453 -162 l 667 -162 l 667 -312 l 556 -465 l 453 -465 l 531 -312 l 453 -312 "},"Ł":{"ha":1235,"x_min":0,"x_max":0,"o":"m 1175 210 l 1175 0 l 175 0 l 175 347 l 60 300 l 60 503 l 175 550 l 175 972 l 425 972 l 425 653 l 785 801 l 785 599 l 425 450 l 425 210 "},"M":{"ha":1608,"x_min":0,"x_max":0,"o":"m 1549 0 l 1299 0 l 1299 667 l 894 0 l 714 0 l 310 667 l 310 0 l 60 0 l 60 972 l 397 972 l 804 286 l 1211 972 l 1549 972 "},"N":{"ha":1372,"x_min":0,"x_max":0,"o":"m 1313 972 l 1313 0 l 972 0 l 310 729 l 310 0 l 60 0 l 60 972 l 399 972 l 1063 242 l 1063 972 "},"Ń":{"ha":1372,"x_min":0,"x_max":0,"o":"m 956 1197 l 415 1086 l 415 1250 l 956 1361 m 1313 972 l 1313 0 l 972 0 l 310 729 l 310 0 l 60 0 l 60 972 l 399 972 l 1063 242 l 1063 972 "},"Ň":{"ha":1372,"x_min":0,"x_max":0,"o":"m 686 1089 l 399 1200 l 399 1364 l 686 1253 l 974 1364 l 974 1200 m 1313 972 l 1313 0 l 972 0 l 310 729 l 310 0 l 60 0 l 60 972 l 399 972 l 1063 242 l 1063 972 "},"Ņ":{"ha":1372,"x_min":0,"x_max":0,"o":"m 1313 972 l 1313 0 l 972 0 l 310 729 l 310 0 l 60 0 l 60 972 l 399 972 l 1063 242 l 1063 972 m 579 -162 l 793 -162 l 793 -312 l 682 -465 l 579 -465 l 657 -312 l 579 -312 "},"Ŋ":{"ha":1372,"x_min":0,"x_max":0,"o":"m 1313 972 l 1313 0 b 926 -375 1313 -240 1199 -375 b 681 -346 844 -375 760 -365 l 681 -154 b 885 -176 749 -168 790 -176 b 1063 0 1032 -176 1063 -111 l 972 0 l 310 729 l 310 0 l 60 0 l 60 972 l 399 972 l 1063 242 l 1063 972 "},"Ñ":{"ha":1372,"x_min":0,"x_max":0,"o":"m 563 1208 b 486 1085 504 1208 486 1164 l 283 1085 b 501 1376 283 1239 344 1376 b 808 1239 660 1376 697 1239 b 886 1363 868 1239 886 1283 l 1089 1363 b 871 1071 1089 1208 1026 1071 b 563 1208 711 1071 674 1208 m 1313 972 l 1313 0 l 972 0 l 310 729 l 310 0 l 60 0 l 60 972 l 399 972 l 1063 242 l 1063 972 "},"O":{"ha":1314,"x_min":0,"x_max":0,"o":"m 657 -14 b 46 488 229 -14 46 164 b 657 986 46 810 229 986 b 1268 488 1083 986 1268 808 b 657 -14 1268 165 1083 -14 m 657 196 b 1018 488 917 196 1018 289 b 657 776 1018 685 918 776 b 296 488 396 776 296 686 b 657 196 296 288 397 196 "},"Ó":{"ha":1314,"x_min":0,"x_max":0,"o":"m 926 1361 l 926 1197 l 386 1086 l 386 1250 m 657 -14 b 46 488 229 -14 46 164 b 657 986 46 810 229 986 b 1268 488 1083 986 1268 808 b 657 -14 1268 165 1083 -14 m 657 196 b 1018 488 917 196 1018 289 b 657 776 1018 685 918 776 b 296 488 396 776 296 686 b 657 196 296 288 397 196 "},"Ô":{"ha":1314,"x_min":0,"x_max":0,"o":"m 657 1197 l 369 1086 l 369 1250 l 657 1361 l 944 1250 l 944 1086 m 657 986 b 1268 488 1083 986 1268 808 b 657 -14 1268 165 1083 -14 b 46 488 229 -14 46 164 b 657 986 46 810 229 986 m 657 196 b 1018 488 917 196 1018 289 b 657 776 1018 685 918 776 b 296 488 396 776 296 686 b 657 196 296 288 397 196 "},"Ö":{"ha":1314,"x_min":0,"x_max":0,"o":"m 600 1311 l 600 1108 l 354 1108 l 354 1311 m 961 1311 l 961 1108 l 715 1108 l 715 1311 m 657 -14 b 46 488 229 -14 46 164 b 657 986 46 810 229 986 b 1268 488 1083 986 1268 808 b 657 -14 1268 165 1083 -14 m 657 196 b 1018 488 917 196 1018 289 b 657 776 1018 685 918 776 b 296 488 396 776 296 686 b 657 196 296 288 397 196 "},"Ò":{"ha":1314,"x_min":0,"x_max":0,"o":"m 926 1086 l 386 1197 l 386 1361 l 926 1250 m 657 -14 b 46 488 229 -14 46 164 b 657 986 46 810 229 986 b 1268 488 1083 986 1268 808 b 657 -14 1268 165 1083 -14 m 657 196 b 1018 488 917 196 1018 289 b 657 776 1018 685 918 776 b 296 488 396 776 296 686 b 657 196 296 288 397 196 "},"Ő":{"ha":1314,"x_min":0,"x_max":0,"o":"m 615 1378 l 615 1208 l 328 1097 l 328 1267 m 986 1378 l 986 1208 l 699 1097 l 699 1267 m 657 -14 b 46 488 229 -14 46 164 b 657 986 46 810 229 986 b 1268 488 1083 986 1268 808 b 657 -14 1268 165 1083 -14 m 657 196 b 1018 488 917 196 1018 289 b 657 776 1018 685 918 776 b 296 488 396 776 296 686 b 657 196 296 288 397 196 "},"Ō":{"ha":1314,"x_min":0,"x_max":0,"o":"m 982 1264 l 982 1100 l 331 1100 l 331 1264 m 657 -14 b 46 488 229 -14 46 164 b 657 986 46 810 229 986 b 1268 488 1083 986 1268 808 b 657 -14 1268 165 1083 -14 m 657 196 b 1018 488 917 196 1018 289 b 657 776 1018 685 918 776 b 296 488 396 776 296 686 b 657 196 296 288 397 196 "},"Ø":{"ha":1314,"x_min":0,"x_max":0,"o":"m 901 961 b 1268 488 1156 901 1268 739 b 657 -14 1268 165 1083 -14 b 611 -12 642 -14 625 -14 l 579 -118 l 374 -118 l 413 11 b 46 488 158 71 46 235 b 657 986 46 810 229 986 b 703 985 672 986 689 986 l 735 1090 l 940 1090 l 901 961 m 296 488 b 474 218 296 344 349 256 l 640 776 b 296 488 392 772 296 682 m 674 196 b 1018 488 921 200 1018 293 b 840 754 1018 629 967 717 l 674 196 "},"Õ":{"ha":1314,"x_min":0,"x_max":0,"o":"m 254 1085 b 472 1376 254 1239 315 1376 b 779 1239 631 1376 668 1239 b 857 1363 839 1239 857 1283 l 1060 1363 b 842 1071 1060 1208 997 1071 b 533 1208 682 1071 644 1208 b 457 1085 475 1208 457 1164 l 254 1085 m 657 -14 b 46 488 229 -14 46 164 b 657 986 46 810 229 986 b 1268 488 1083 986 1268 808 b 657 -14 1268 165 1083 -14 m 657 196 b 1018 488 917 196 1018 289 b 657 776 1018 685 918 776 b 296 488 396 776 296 686 b 657 196 296 288 397 196 "},"Œ":{"ha":2160,"x_min":0,"x_max":0,"o":"m 1336 774 l 1336 576 l 2114 576 l 2114 396 l 1336 396 l 1336 199 l 2114 199 l 2114 0 l 1086 0 l 1086 89 b 657 -14 988 21 846 -14 b 46 488 229 -14 46 164 b 657 986 46 810 229 986 b 1086 885 846 986 988 951 l 1086 972 l 2114 972 l 2114 774 m 657 196 b 1018 488 917 196 1018 289 b 657 776 1018 685 918 776 b 296 488 396 776 296 686 b 657 196 296 288 397 196 "},"P":{"ha":1242,"x_min":0,"x_max":0,"o":"m 824 972 b 1196 615 1044 972 1196 832 b 824 260 1196 399 1044 260 l 310 260 l 310 0 l 60 0 l 60 972 l 824 972 m 754 469 b 946 615 829 469 946 469 b 754 763 946 763 829 763 l 310 763 l 310 469 l 754 469 "},"Þ":{"ha":1242,"x_min":0,"x_max":0,"o":"m 824 844 b 1196 488 1044 844 1196 704 b 824 132 1196 271 1044 132 l 310 132 l 310 0 l 60 0 l 60 972 l 310 972 l 310 844 l 824 844 m 754 342 b 946 488 829 342 946 342 b 754 633 946 633 829 633 l 310 633 l 310 342 l 754 342 "},"Q":{"ha":1411,"x_min":0,"x_max":0,"o":"m 1175 -124 l 1007 44 b 657 -14 915 6 800 -14 b 46 488 229 -14 46 164 b 657 986 46 810 229 986 b 1268 488 1083 986 1268 808 b 1199 206 1268 376 1246 282 l 1351 53 m 296 488 b 657 196 296 288 397 196 b 1018 488 917 196 1018 289 b 657 776 1018 685 918 776 b 296 488 396 776 296 686 "},"R":{"ha":1242,"x_min":0,"x_max":0,"o":"m 1196 615 b 985 289 1196 457 1115 340 l 1164 0 l 869 0 l 713 260 l 310 260 l 310 0 l 60 0 l 60 972 l 824 972 b 1196 615 1044 972 1196 832 m 310 469 l 754 469 b 946 615 829 469 946 469 b 754 763 946 763 829 763 l 310 763 "},"Ŕ":{"ha":1242,"x_min":0,"x_max":0,"o":"m 865 1197 l 325 1086 l 325 1250 l 865 1361 m 1196 615 b 985 289 1196 457 1115 340 l 1164 0 l 869 0 l 713 260 l 310 260 l 310 0 l 60 0 l 60 972 l 824 972 b 1196 615 1044 972 1196 832 m 310 469 l 754 469 b 946 615 829 469 946 469 b 754 763 946 763 829 763 l 310 763 "},"Ř":{"ha":1242,"x_min":0,"x_max":0,"o":"m 596 1089 l 308 1200 l 308 1364 l 596 1253 l 883 1364 l 883 1200 m 1196 615 b 985 289 1196 457 1115 340 l 1164 0 l 869 0 l 713 260 l 310 260 l 310 0 l 60 0 l 60 972 l 824 972 b 1196 615 1044 972 1196 832 m 310 469 l 754 469 b 946 615 829 469 946 469 b 754 763 946 763 829 763 l 310 763 "},"Ŗ":{"ha":1242,"x_min":0,"x_max":0,"o":"m 1196 615 b 985 289 1196 457 1115 340 l 1164 0 l 869 0 l 713 260 l 310 260 l 310 0 l 60 0 l 60 972 l 824 972 b 1196 615 1044 972 1196 832 m 310 469 l 754 469 b 946 615 829 469 946 469 b 754 763 946 763 829 763 l 310 763 m 489 -162 l 703 -162 l 703 -312 l 592 -465 l 489 -465 l 567 -312 l 489 -312 "},"S":{"ha":1333,"x_min":0,"x_max":0,"o":"m 296 335 b 696 185 296 232 379 185 b 1038 290 958 185 1038 214 b 667 400 1038 371 982 385 b 75 704 243 419 75 486 b 657 986 75 918 293 986 b 1246 654 1024 986 1246 894 l 996 654 b 629 788 996 761 889 788 b 325 692 383 788 325 764 b 667 586 325 617 383 603 b 1288 299 1050 565 1288 544 b 682 -14 1288 39 1042 -14 b 46 335 283 -14 46 54 "},"Ś":{"ha":1333,"x_min":0,"x_max":0,"o":"m 936 1361 l 936 1197 l 396 1086 l 396 1250 m 296 335 b 696 185 296 232 379 185 b 1038 290 958 185 1038 214 b 667 400 1038 371 982 385 b 75 704 243 419 75 486 b 657 986 75 918 293 986 b 1246 654 1024 986 1246 894 l 996 654 b 629 788 996 761 889 788 b 325 692 383 788 325 764 b 667 586 325 617 383 603 b 1288 299 1050 565 1288 544 b 682 -14 1288 39 1042 -14 b 46 335 283 -14 46 54 "},"Š":{"ha":1333,"x_min":0,"x_max":0,"o":"m 667 1089 l 379 1200 l 379 1364 l 667 1253 l 954 1364 l 954 1200 m 667 586 b 1288 299 1050 565 1288 544 b 682 -14 1288 39 1042 -14 b 46 335 283 -14 46 54 l 296 335 b 696 185 296 232 379 185 b 1038 290 958 185 1038 214 b 667 400 1038 371 982 385 b 75 704 243 419 75 486 b 657 986 75 918 293 986 b 1246 654 1024 986 1246 894 l 996 654 b 629 788 996 761 889 788 b 325 692 383 788 325 764 b 667 586 325 617 383 603 "},"Ş":{"ha":1333,"x_min":0,"x_max":0,"o":"m 1288 299 b 746 -14 1288 54 1071 -7 l 729 -65 b 975 -161 813 -39 975 -26 b 536 -319 975 -319 750 -346 l 536 -201 b 796 -149 718 -228 796 -201 b 651 -129 796 -115 760 -104 l 569 -49 l 583 -12 b 46 335 244 -1 46 78 l 296 335 b 696 185 296 232 379 185 b 1038 290 958 185 1038 214 b 667 400 1038 371 982 385 b 75 704 243 419 75 486 b 657 986 75 918 293 986 b 1246 654 1024 986 1246 894 l 996 654 b 629 788 996 761 889 788 b 325 692 383 788 325 764 b 667 586 325 617 383 603 b 1288 299 1050 565 1288 544 "},"Ș":{"ha":1333,"x_min":0,"x_max":0,"o":"m 296 335 b 696 185 296 232 379 185 b 1038 290 958 185 1038 214 b 667 400 1038 371 982 385 b 75 704 243 419 75 486 b 657 986 75 918 293 986 b 1246 654 1024 986 1246 894 l 996 654 b 629 788 996 761 889 788 b 325 692 383 788 325 764 b 667 586 325 617 383 603 b 1288 299 1050 565 1288 544 b 682 -14 1288 39 1042 -14 b 46 335 283 -14 46 54 m 774 -162 l 774 -312 l 663 -465 l 560 -465 l 638 -312 l 560 -312 l 560 -162 "},"T":{"ha":1286,"x_min":0,"x_max":0,"o":"m 1240 763 l 768 763 l 768 0 l 518 0 l 518 763 l 46 763 l 46 972 l 1240 972 "},"Ŧ":{"ha":1286,"x_min":0,"x_max":0,"o":"m 768 763 l 768 485 l 964 485 l 964 321 l 768 321 l 768 0 l 518 0 l 518 321 l 297 321 l 297 485 l 518 485 l 518 763 l 46 763 l 46 972 l 1240 972 l 1240 763 "},"Ť":{"ha":1286,"x_min":0,"x_max":0,"o":"m 643 1089 l 356 1200 l 356 1364 l 643 1253 l 931 1364 l 931 1200 m 1240 763 l 768 763 l 768 0 l 518 0 l 518 763 l 46 763 l 46 972 l 1240 972 "},"Ţ":{"ha":1286,"x_min":0,"x_max":0,"o":"m 726 0 l 706 -65 b 951 -161 789 -39 951 -26 b 513 -319 951 -319 726 -346 l 513 -201 b 772 -149 694 -228 772 -201 b 628 -129 772 -115 736 -104 l 546 -49 l 565 0 l 518 0 l 518 763 l 46 763 l 46 972 l 1240 972 l 1240 763 l 768 763 l 768 0 "},"Ț":{"ha":1286,"x_min":0,"x_max":0,"o":"m 1240 763 l 768 763 l 768 0 l 518 0 l 518 763 l 46 763 l 46 972 l 1240 972 m 536 -162 l 750 -162 l 750 -312 l 639 -465 l 536 -465 l 614 -312 l 536 -312 "},"U":{"ha":1342,"x_min":0,"x_max":0,"o":"m 1282 488 b 671 -14 1282 150 1097 -14 b 60 488 243 -14 60 149 l 60 972 l 310 972 l 310 488 b 671 196 310 351 347 196 b 1032 488 994 196 1032 353 l 1032 972 l 1282 972 l 1282 488 "},"Ú":{"ha":1342,"x_min":0,"x_max":0,"o":"m 940 1361 l 940 1197 l 400 1086 l 400 1250 m 1282 488 b 671 -14 1282 150 1097 -14 b 60 488 243 -14 60 149 l 60 972 l 310 972 l 310 488 b 671 196 310 351 347 196 b 1032 488 994 196 1032 353 l 1032 972 l 1282 972 l 1282 488 "},"Û":{"ha":1342,"x_min":0,"x_max":0,"o":"m 671 1197 l 383 1086 l 383 1250 l 671 1361 l 958 1250 l 958 1086 m 1282 972 l 1282 488 b 671 -14 1282 150 1097 -14 b 60 488 243 -14 60 149 l 60 972 l 310 972 l 310 488 b 671 196 310 351 347 196 b 1032 488 994 196 1032 353 l 1032 972 "},"Ü":{"ha":1342,"x_min":0,"x_max":0,"o":"m 614 1311 l 614 1108 l 368 1108 l 368 1311 m 975 1311 l 975 1108 l 729 1108 l 729 1311 m 1282 488 b 671 -14 1282 150 1097 -14 b 60 488 243 -14 60 149 l 60 972 l 310 972 l 310 488 b 671 196 310 351 347 196 b 1032 488 994 196 1032 353 l 1032 972 l 1282 972 l 1282 488 "},"Ù":{"ha":1342,"x_min":0,"x_max":0,"o":"m 940 1086 l 400 1197 l 400 1361 l 940 1250 m 1282 488 b 671 -14 1282 150 1097 -14 b 60 488 243 -14 60 149 l 60 972 l 310 972 l 310 488 b 671 196 310 351 347 196 b 1032 488 994 196 1032 353 l 1032 972 l 1282 972 l 1282 488 "},"Ű":{"ha":1342,"x_min":0,"x_max":0,"o":"m 629 1378 l 629 1208 l 342 1097 l 342 1267 m 1000 1378 l 1000 1208 l 713 1097 l 713 1267 m 1282 488 b 671 -14 1282 150 1097 -14 b 60 488 243 -14 60 149 l 60 972 l 310 972 l 310 488 b 671 196 310 351 347 196 b 1032 488 994 196 1032 353 l 1032 972 l 1282 972 l 1282 488 "},"Ū":{"ha":1342,"x_min":0,"x_max":0,"o":"m 996 1264 l 996 1100 l 344 1100 l 344 1264 m 1282 488 b 671 -14 1282 150 1097 -14 b 60 488 243 -14 60 149 l 60 972 l 310 972 l 310 488 b 671 196 310 351 347 196 b 1032 488 994 196 1032 353 l 1032 972 l 1282 972 l 1282 488 "},"Ų":{"ha":1342,"x_min":0,"x_max":0,"o":"m 1282 972 l 1282 488 b 850 -3 1282 201 1150 40 b 788 -87 821 -25 788 -53 b 1010 -157 788 -157 894 -157 l 1010 -319 b 610 -157 750 -319 610 -293 b 701 -14 610 -99 643 -56 l 671 -14 b 60 488 243 -14 60 149 l 60 972 l 310 972 l 310 488 b 671 196 310 351 347 196 b 1032 488 994 196 1032 353 l 1032 972 "},"Ů":{"ha":1342,"x_min":0,"x_max":0,"o":"m 671 1071 b 379 1254 453 1071 379 1139 b 671 1438 379 1369 453 1438 b 963 1254 888 1438 963 1369 b 671 1071 963 1139 888 1071 m 671 1181 b 811 1254 761 1181 811 1199 b 671 1328 811 1310 761 1328 b 529 1254 581 1328 529 1310 b 671 1181 529 1199 581 1181 m 1282 488 b 671 -14 1282 150 1097 -14 b 60 488 243 -14 60 149 l 60 972 l 310 972 l 310 488 b 671 196 310 351 347 196 b 1032 488 994 196 1032 353 l 1032 972 l 1282 972 l 1282 488 "},"V":{"ha":1433,"x_min":0,"x_max":0,"o":"m 1388 972 l 888 0 l 546 0 l 46 972 l 326 972 l 717 185 l 1107 972 "},"W":{"ha":2122,"x_min":0,"x_max":0,"o":"m 2076 972 l 1693 0 l 1347 0 l 1061 732 l 774 0 l 429 0 l 46 972 l 315 972 l 603 208 l 907 972 l 1214 972 l 1519 207 l 1806 972 "},"Ẃ":{"ha":2122,"x_min":0,"x_max":0,"o":"m 1331 1197 l 790 1086 l 790 1250 l 1331 1361 m 2076 972 l 1693 0 l 1347 0 l 1061 732 l 774 0 l 429 0 l 46 972 l 315 972 l 603 208 l 907 972 l 1214 972 l 1519 207 l 1806 972 "},"Ŵ":{"ha":2122,"x_min":0,"x_max":0,"o":"m 1061 1197 l 774 1086 l 774 1250 l 1061 1361 l 1349 1250 l 1349 1086 m 2076 972 l 1693 0 l 1347 0 l 1061 732 l 774 0 l 429 0 l 46 972 l 315 972 l 603 208 l 907 972 l 1214 972 l 1519 207 l 1806 972 "},"Ẅ":{"ha":2122,"x_min":0,"x_max":0,"o":"m 1004 1108 l 758 1108 l 758 1311 l 1004 1311 m 1365 1108 l 1119 1108 l 1119 1311 l 1365 1311 m 2076 972 l 1693 0 l 1347 0 l 1061 732 l 774 0 l 429 0 l 46 972 l 315 972 l 603 208 l 907 972 l 1214 972 l 1519 207 l 1806 972 "},"Ẁ":{"ha":2122,"x_min":0,"x_max":0,"o":"m 1331 1086 l 790 1197 l 790 1361 l 1331 1250 m 2076 972 l 1693 0 l 1347 0 l 1061 732 l 774 0 l 429 0 l 46 972 l 315 972 l 603 208 l 907 972 l 1214 972 l 1519 207 l 1806 972 "},"X":{"ha":1525,"x_min":0,"x_max":0,"o":"m 593 486 l 46 972 l 390 972 l 763 639 l 1133 972 l 1479 972 l 932 486 l 1479 0 l 1133 0 l 763 333 l 390 0 l 46 0 "},"Y":{"ha":1442,"x_min":0,"x_max":0,"o":"m 46 972 l 347 972 l 721 529 l 1094 972 l 1396 972 l 846 319 l 846 0 l 596 0 l 596 319 "},"Ý":{"ha":1442,"x_min":0,"x_max":0,"o":"m 990 1361 l 990 1197 l 450 1086 l 450 1250 m 46 972 l 347 972 l 721 529 l 1094 972 l 1396 972 l 846 319 l 846 0 l 596 0 l 596 319 "},"Ŷ":{"ha":1442,"x_min":0,"x_max":0,"o":"m 721 1197 l 433 1086 l 433 1250 l 721 1361 l 1008 1250 l 1008 1086 m 1396 972 l 846 319 l 846 0 l 596 0 l 596 319 l 46 972 l 347 972 l 721 529 l 1094 972 "},"Ÿ":{"ha":1442,"x_min":0,"x_max":0,"o":"m 664 1311 l 664 1108 l 418 1108 l 418 1311 m 1025 1311 l 1025 1108 l 779 1108 l 779 1311 m 46 972 l 347 972 l 721 529 l 1094 972 l 1396 972 l 846 319 l 846 0 l 596 0 l 596 319 "},"Ỳ":{"ha":1442,"x_min":0,"x_max":0,"o":"m 990 1086 l 450 1197 l 450 1361 l 990 1250 m 46 972 l 347 972 l 721 529 l 1094 972 l 1396 972 l 846 319 l 846 0 l 596 0 l 596 319 "},"Z":{"ha":1217,"x_min":0,"x_max":0,"o":"m 1157 763 l 418 210 l 1157 210 l 1157 0 l 60 0 l 60 210 l 797 763 l 60 763 l 60 972 l 1157 972 "},"Ź":{"ha":1217,"x_min":0,"x_max":0,"o":"m 878 1197 l 338 1086 l 338 1250 l 878 1361 m 1157 763 l 418 210 l 1157 210 l 1157 0 l 60 0 l 60 210 l 797 763 l 60 763 l 60 972 l 1157 972 "},"Ž":{"ha":1217,"x_min":0,"x_max":0,"o":"m 608 1089 l 321 1200 l 321 1364 l 608 1253 l 896 1364 l 896 1200 m 1157 763 l 418 210 l 1157 210 l 1157 0 l 60 0 l 60 210 l 797 763 l 60 763 l 60 972 l 1157 972 "},"Ż":{"ha":1217,"x_min":0,"x_max":0,"o":"m 743 1108 l 474 1108 l 474 1311 l 743 1311 m 1157 763 l 418 210 l 1157 210 l 1157 0 l 60 0 l 60 210 l 797 763 l 60 763 l 60 972 l 1157 972 "},"a":{"ha":1214,"x_min":0,"x_max":0,"o":"m 615 832 b 1154 413 957 832 1151 722 l 1154 0 l 915 0 l 915 101 b 418 -14 771 31 611 -14 b 46 244 189 -14 46 60 b 539 524 46 457 279 524 b 915 465 679 524 808 501 b 604 633 915 621 715 633 b 199 574 497 633 367 624 l 114 747 b 615 832 281 801 444 832 m 915 318 b 568 368 832 344 719 368 b 283 254 390 368 283 338 b 486 161 283 168 363 161 b 915 254 615 161 793 201 "},"á":{"ha":1214,"x_min":0,"x_max":0,"o":"m 894 1043 l 354 932 l 354 1096 l 894 1207 m 615 832 b 1154 413 957 832 1151 722 l 1154 0 l 915 0 l 915 101 b 418 -14 771 31 611 -14 b 46 244 189 -14 46 60 b 539 524 46 457 279 524 b 915 465 679 524 808 501 b 604 633 915 621 715 633 b 199 574 497 633 367 624 l 114 747 b 615 832 281 801 444 832 m 915 318 b 568 368 832 344 719 368 b 283 254 390 368 283 338 b 486 161 283 168 363 161 b 915 254 615 161 793 201 "},"ă":{"ha":1214,"x_min":0,"x_max":0,"o":"m 625 911 b 310 1208 453 911 310 967 l 460 1208 b 625 1054 460 1096 522 1054 b 789 1208 728 1054 789 1096 l 940 1208 b 625 911 940 967 797 911 m 615 832 b 1154 413 957 832 1151 722 l 1154 0 l 915 0 l 915 101 b 418 -14 771 31 611 -14 b 46 244 189 -14 46 60 b 539 524 46 457 279 524 b 915 465 679 524 808 501 b 604 633 915 621 715 633 b 199 574 497 633 367 624 l 114 747 b 615 832 281 801 444 832 m 915 318 b 568 368 832 344 719 368 b 283 254 390 368 283 338 b 486 161 283 168 363 161 b 915 254 615 161 793 201 "},"â":{"ha":1214,"x_min":0,"x_max":0,"o":"m 625 1043 l 338 932 l 338 1096 l 625 1207 l 913 1096 l 913 932 m 615 832 b 1154 413 957 832 1151 722 l 1154 0 l 915 0 l 915 101 b 418 -14 771 31 611 -14 b 46 244 189 -14 46 60 b 539 524 46 457 279 524 b 915 465 679 524 808 501 b 604 633 915 621 715 633 b 199 574 497 633 367 624 l 114 747 b 615 832 281 801 444 832 m 915 318 b 568 368 832 344 719 368 b 283 254 390 368 283 338 b 486 161 283 168 363 161 b 915 254 615 161 793 201 "},"ä":{"ha":1214,"x_min":0,"x_max":0,"o":"m 568 954 l 322 954 l 322 1157 l 568 1157 m 929 954 l 683 954 l 683 1157 l 929 1157 m 615 832 b 1154 413 957 832 1151 722 l 1154 0 l 915 0 l 915 101 b 418 -14 771 31 611 -14 b 46 244 189 -14 46 60 b 539 524 46 457 279 524 b 915 465 679 524 808 501 b 604 633 915 621 715 633 b 199 574 497 633 367 624 l 114 747 b 615 832 281 801 444 832 m 915 318 b 568 368 832 344 719 368 b 283 254 390 368 283 338 b 486 161 283 168 363 161 b 915 254 615 161 793 201 "},"à":{"ha":1214,"x_min":0,"x_max":0,"o":"m 894 932 l 354 1043 l 354 1207 l 894 1096 m 615 832 b 1154 413 957 832 1151 722 l 1154 0 l 915 0 l 915 101 b 418 -14 771 31 611 -14 b 46 244 189 -14 46 60 b 539 524 46 457 279 524 b 915 465 679 524 808 501 b 604 633 915 621 715 633 b 199 574 497 633 367 624 l 114 747 b 615 832 281 801 444 832 m 915 318 b 568 368 832 344 719 368 b 283 254 390 368 283 338 b 486 161 283 168 363 161 b 915 254 615 161 793 201 "},"ā":{"ha":1214,"x_min":0,"x_max":0,"o":"m 950 946 l 299 946 l 299 1110 l 950 1110 m 615 832 b 1154 413 957 832 1151 722 l 1154 0 l 915 0 l 915 101 b 418 -14 771 31 611 -14 b 46 244 189 -14 46 60 b 539 524 46 457 279 524 b 915 465 679 524 808 501 b 604 633 915 621 715 633 b 199 574 497 633 367 624 l 114 747 b 615 832 281 801 444 832 m 915 318 b 568 368 832 344 719 368 b 283 254 390 368 283 338 b 486 161 283 168 363 161 b 915 254 615 161 793 201 "},"ą":{"ha":1214,"x_min":0,"x_max":0,"o":"m 1011 -87 b 1233 -157 1011 -157 1118 -157 l 1233 -319 b 833 -157 974 -319 833 -293 b 944 0 833 -92 874 -46 l 915 0 l 915 101 b 418 -14 771 31 611 -14 b 46 244 189 -14 46 60 b 539 524 46 457 279 524 b 915 465 679 524 808 501 b 604 633 915 621 715 633 b 199 574 497 633 367 624 l 114 747 b 615 832 281 801 444 832 b 1154 413 957 832 1151 722 l 1154 0 l 1076 0 b 1011 -87 1047 -24 1011 -51 m 915 318 b 568 368 832 344 719 368 b 283 254 390 368 283 338 b 486 161 283 168 363 161 b 915 254 615 161 793 201 "},"å":{"ha":1214,"x_min":0,"x_max":0,"o":"m 625 917 b 333 1100 407 917 333 985 b 625 1283 333 1215 407 1283 b 917 1100 842 1283 917 1215 b 625 917 917 985 842 917 m 625 1174 b 483 1100 535 1174 483 1156 b 625 1026 483 1044 535 1026 b 765 1100 715 1026 765 1044 b 625 1174 765 1156 715 1174 m 615 832 b 1154 413 957 832 1151 722 l 1154 0 l 915 0 l 915 101 b 418 -14 771 31 611 -14 b 46 244 189 -14 46 60 b 539 524 46 457 279 524 b 915 465 679 524 808 501 b 604 633 915 621 715 633 b 199 574 497 633 367 624 l 114 747 b 615 832 281 801 444 832 m 915 318 b 568 368 832 344 719 368 b 283 254 390 368 283 338 b 486 161 283 168 363 161 b 915 254 615 161 793 201 "},"ã":{"ha":1214,"x_min":0,"x_max":0,"o":"m 501 1054 b 425 931 443 1054 425 1010 l 222 931 b 440 1222 222 1085 283 1222 b 747 1085 599 1222 636 1085 b 825 1208 807 1085 825 1129 l 1028 1208 b 810 917 1028 1054 965 917 b 501 1054 650 917 613 1054 m 615 832 b 1154 413 957 832 1151 722 l 1154 0 l 915 0 l 915 101 b 418 -14 771 31 611 -14 b 46 244 189 -14 46 60 b 539 524 46 457 279 524 b 915 465 679 524 808 501 b 604 633 915 621 715 633 b 199 574 497 633 367 624 l 114 747 b 615 832 281 801 444 832 m 915 318 b 568 368 832 344 719 368 b 283 254 390 368 283 338 b 486 161 283 168 363 161 b 915 254 615 161 793 201 "},"æ":{"ha":2103,"x_min":0,"x_max":0,"o":"m 1483 179 b 1807 293 1647 179 1747 210 l 2043 293 b 1483 -14 1989 85 1786 -14 b 1018 149 1285 -14 1115 36 b 438 -14 871 33 629 -14 b 46 244 196 -14 46 60 b 539 524 46 465 279 524 b 915 465 679 524 808 501 b 604 633 915 621 715 633 b 199 574 497 633 367 624 l 114 747 b 615 832 281 801 444 832 b 1053 704 813 832 961 796 b 1497 832 1153 793 1310 832 b 2057 353 1808 832 2057 725 l 1174 353 b 1483 179 1200 222 1325 179 m 1496 651 b 1182 504 1333 651 1219 619 l 1803 504 b 1496 651 1763 619 1646 651 m 915 318 b 568 368 832 344 719 368 b 283 260 390 368 283 351 b 486 161 283 174 363 161 b 915 269 631 161 793 194 "},"b":{"ha":1239,"x_min":0,"x_max":0,"o":"m 706 832 b 1193 408 968 832 1193 721 b 706 -14 1193 96 968 -14 b 297 128 529 -14 386 35 l 297 0 l 60 0 l 60 1111 l 297 1111 l 297 690 b 706 832 386 783 529 832 m 626 185 b 954 408 839 185 954 247 b 626 633 954 571 839 633 b 297 408 414 633 297 571 b 626 185 297 247 414 185 "},"c":{"ha":1218,"x_min":0,"x_max":0,"o":"m 46 408 b 613 832 46 710 274 832 b 1172 492 918 832 1133 732 l 929 492 b 613 633 897 597 785 633 b 283 408 408 633 283 579 b 613 185 283 239 408 185 b 929 326 785 185 897 221 l 1172 326 b 613 -14 1133 86 918 -14 b 46 408 274 -14 46 108 "},"ć":{"ha":1218,"x_min":0,"x_max":0,"o":"m 882 1207 l 882 1043 l 342 932 l 342 1096 m 46 408 b 613 832 46 710 274 832 b 1172 492 918 832 1133 732 l 929 492 b 613 633 897 597 785 633 b 283 408 408 633 283 579 b 613 185 283 239 408 185 b 929 326 785 185 897 221 l 1172 326 b 613 -14 1133 86 918 -14 b 46 408 274 -14 46 108 "},"č":{"ha":1218,"x_min":0,"x_max":0,"o":"m 613 935 l 325 1046 l 325 1210 l 613 1099 l 900 1210 l 900 1046 m 613 185 b 929 326 785 185 897 221 l 1172 326 b 613 -14 1133 86 918 -14 b 46 408 274 -14 46 108 b 613 832 46 710 274 832 b 1172 492 918 832 1133 732 l 929 492 b 613 633 897 597 785 633 b 283 408 408 633 283 579 b 613 185 283 239 408 185 "},"ç":{"ha":1218,"x_min":0,"x_max":0,"o":"m 613 185 b 929 326 785 185 897 221 l 1172 326 b 692 -11 1138 107 956 6 l 675 -65 b 921 -161 758 -39 921 -26 b 482 -319 921 -319 696 -346 l 482 -201 b 742 -149 664 -228 742 -201 b 597 -129 742 -115 706 -104 l 515 -49 l 531 -11 b 46 408 238 8 46 133 b 613 832 46 710 274 832 b 1172 492 918 832 1133 732 l 929 492 b 613 633 897 597 785 633 b 283 408 408 633 283 579 b 613 185 283 239 408 185 "},"ċ":{"ha":1218,"x_min":0,"x_max":0,"o":"m 747 1157 l 747 954 l 478 954 l 478 1157 m 46 408 b 613 832 46 710 274 832 b 1172 492 918 832 1133 732 l 929 492 b 613 633 897 597 785 633 b 283 408 408 633 283 579 b 613 185 283 239 408 185 b 929 326 785 185 897 221 l 1172 326 b 613 -14 1133 86 918 -14 b 46 408 274 -14 46 108 "},"d":{"ha":1239,"x_min":0,"x_max":0,"o":"m 1179 1111 l 1179 0 l 942 0 l 942 128 b 533 -14 853 35 710 -14 b 46 408 271 -14 46 96 b 533 832 46 721 271 832 b 942 690 710 832 853 783 l 942 1111 m 613 185 b 942 408 825 185 942 247 b 613 633 942 571 825 633 b 285 408 400 633 285 571 b 613 185 285 247 400 185 "},"ð":{"ha":1318,"x_min":0,"x_max":0,"o":"m 1007 1071 b 1258 536 1161 942 1258 760 b 604 -14 1258 135 936 -14 b 60 386 272 -14 60 97 b 529 778 60 624 194 778 b 1018 576 742 778 903 688 b 774 971 1006 758 911 886 l 421 819 l 332 956 l 569 1057 b 332 1099 494 1079 414 1092 l 365 1306 b 849 1176 540 1296 707 1251 l 1132 1299 l 1219 1163 l 1007 1071 m 588 185 b 975 354 767 185 907 238 b 549 579 853 511 682 579 b 297 386 400 579 297 535 b 588 185 297 246 390 185 "},"ď":{"ha":1546,"x_min":0,"x_max":0,"o":"m 942 1111 l 1179 1111 l 1179 0 l 942 0 l 942 128 b 533 -14 853 35 710 -14 b 46 408 271 -14 46 96 b 533 832 46 721 271 832 b 942 690 710 832 853 783 m 1486 1111 l 1486 925 l 1374 651 l 1260 651 l 1331 925 l 1249 925 l 1249 1111 m 613 185 b 942 408 825 185 942 247 b 613 633 942 571 825 633 b 285 408 400 633 285 571 b 613 185 285 247 400 185 "},"đ":{"ha":1308,"x_min":0,"x_max":0,"o":"m 1249 876 l 1179 876 l 1179 0 l 942 0 l 942 128 b 533 -14 853 35 710 -14 b 46 408 271 -14 46 96 b 533 832 46 721 271 832 b 942 690 710 832 853 783 l 942 876 l 582 876 l 582 1040 l 942 1040 l 942 1111 l 1179 1111 l 1179 1040 l 1249 1040 m 613 185 b 942 408 825 185 942 247 b 613 633 942 571 825 633 b 285 408 400 633 285 571 b 613 185 285 247 400 185 "},"e":{"ha":1218,"x_min":0,"x_max":0,"o":"m 599 179 b 922 293 763 179 863 210 l 1158 293 b 599 -14 1104 85 901 -14 b 46 408 288 -14 46 108 b 613 832 46 710 281 832 b 1172 353 924 832 1172 725 l 289 353 b 599 179 315 222 440 179 m 611 651 b 297 504 449 651 335 619 l 918 504 b 611 651 878 619 761 651 "},"é":{"ha":1218,"x_min":0,"x_max":0,"o":"m 881 1043 l 340 932 l 340 1096 l 881 1207 m 599 179 b 922 293 763 179 863 210 l 1158 293 b 599 -14 1104 85 901 -14 b 46 408 288 -14 46 108 b 613 832 46 710 281 832 b 1172 353 924 832 1172 725 l 289 353 b 599 179 315 222 440 179 m 611 651 b 297 504 449 651 335 619 l 918 504 b 611 651 878 619 761 651 "},"ě":{"ha":1218,"x_min":0,"x_max":0,"o":"m 611 935 l 324 1046 l 324 1210 l 611 1099 l 899 1210 l 899 1046 m 599 179 b 922 293 763 179 863 210 l 1158 293 b 599 -14 1104 85 901 -14 b 46 408 288 -14 46 108 b 613 832 46 710 281 832 b 1172 353 924 832 1172 725 l 289 353 b 599 179 315 222 440 179 m 611 651 b 297 504 449 651 335 619 l 918 504 b 611 651 878 619 761 651 "},"ê":{"ha":1218,"x_min":0,"x_max":0,"o":"m 611 1043 l 324 932 l 324 1096 l 611 1207 l 899 1096 l 899 932 m 599 179 b 922 293 763 179 863 210 l 1158 293 b 599 -14 1104 85 901 -14 b 46 408 288 -14 46 108 b 613 832 46 710 281 832 b 1172 353 924 832 1172 725 l 289 353 b 599 179 315 222 440 179 m 611 651 b 297 504 449 651 335 619 l 918 504 b 611 651 878 619 761 651 "},"ë":{"ha":1218,"x_min":0,"x_max":0,"o":"m 554 954 l 308 954 l 308 1157 l 554 1157 m 915 954 l 669 954 l 669 1157 l 915 1157 m 599 179 b 922 293 763 179 863 210 l 1158 293 b 599 -14 1104 85 901 -14 b 46 408 288 -14 46 108 b 613 832 46 710 281 832 b 1172 353 924 832 1172 725 l 289 353 b 599 179 315 222 440 179 m 611 651 b 297 504 449 651 335 619 l 918 504 b 611 651 878 619 761 651 "},"ė":{"ha":1218,"x_min":0,"x_max":0,"o":"m 746 954 l 476 954 l 476 1157 l 746 1157 m 599 179 b 922 293 763 179 863 210 l 1158 293 b 599 -14 1104 85 901 -14 b 46 408 288 -14 46 108 b 613 832 46 710 281 832 b 1172 353 924 832 1172 725 l 289 353 b 599 179 315 222 440 179 m 611 651 b 297 504 449 651 335 619 l 918 504 b 611 651 878 619 761 651 "},"è":{"ha":1218,"x_min":0,"x_max":0,"o":"m 881 932 l 340 1043 l 340 1207 l 881 1096 m 599 179 b 922 293 763 179 863 210 l 1158 293 b 599 -14 1104 85 901 -14 b 46 408 288 -14 46 108 b 613 832 46 710 281 832 b 1172 353 924 832 1172 725 l 289 353 b 599 179 315 222 440 179 m 611 651 b 297 504 449 651 335 619 l 918 504 b 611 651 878 619 761 651 "},"ē":{"ha":1218,"x_min":0,"x_max":0,"o":"m 936 946 l 285 946 l 285 1110 l 936 1110 m 599 179 b 922 293 763 179 863 210 l 1158 293 b 599 -14 1104 85 901 -14 b 46 408 288 -14 46 108 b 613 832 46 710 281 832 b 1172 353 924 832 1172 725 l 289 353 b 599 179 315 222 440 179 m 611 651 b 297 504 449 651 335 619 l 918 504 b 611 651 878 619 761 651 "},"ę":{"ha":1218,"x_min":0,"x_max":0,"o":"m 599 179 b 922 293 763 179 863 210 l 1158 293 b 771 -1 1115 126 978 31 b 707 -87 742 -25 707 -53 b 929 -157 707 -157 814 -157 l 929 -319 b 529 -157 669 -319 529 -293 b 619 -14 529 -99 563 -56 l 599 -14 b 46 408 288 -14 46 108 b 613 832 46 710 281 832 b 1172 353 924 832 1172 725 l 289 353 b 599 179 315 222 440 179 m 611 651 b 297 504 449 651 335 619 l 918 504 b 611 651 878 619 761 651 "},"f":{"ha":892,"x_min":0,"x_max":0,"o":"m 675 950 b 500 818 539 950 504 921 l 846 818 l 846 619 l 500 619 l 500 0 l 261 0 l 261 619 l 46 619 l 46 818 l 261 818 l 261 879 b 600 1125 261 1046 361 1125 b 846 1111 682 1125 725 1125 l 846 943 b 675 950 792 947 736 950 "},"g":{"ha":1239,"x_min":0,"x_max":0,"o":"m 1179 818 l 1179 131 b 646 -347 1179 -203 956 -347 b 133 -282 408 -347 213 -303 l 133 -90 b 593 -149 229 -108 413 -149 b 940 156 839 -149 931 -54 b 526 10 857 64 719 10 b 46 421 246 10 46 132 b 526 832 46 710 246 832 b 940 686 721 832 858 778 l 940 818 m 613 208 b 940 421 836 208 940 271 b 613 633 940 571 836 633 b 283 421 389 633 283 571 b 613 208 283 271 389 208 "},"ğ":{"ha":1239,"x_min":0,"x_max":0,"o":"m 613 911 b 297 1208 440 911 297 967 l 447 1208 b 613 1054 447 1096 510 1054 b 776 1208 715 1054 776 1096 l 928 1208 b 613 911 928 967 785 911 m 1179 818 l 1179 131 b 646 -347 1179 -203 956 -347 b 133 -282 408 -347 213 -303 l 133 -90 b 593 -149 229 -108 413 -149 b 940 156 839 -149 931 -54 b 526 10 857 64 719 10 b 46 421 246 10 46 132 b 526 832 46 710 246 832 b 940 686 721 832 858 778 l 940 818 m 613 208 b 940 421 836 208 940 271 b 613 633 940 571 836 633 b 283 421 389 633 283 571 b 613 208 283 271 389 208 "},"ģ":{"ha":1239,"x_min":0,"x_max":0,"o":"m 719 981 l 506 981 l 506 1131 l 617 1283 l 719 1283 l 642 1131 l 719 1131 m 1179 818 l 1179 131 b 646 -347 1179 -203 956 -347 b 133 -282 408 -347 213 -303 l 133 -90 b 593 -149 229 -108 413 -149 b 940 156 839 -149 931 -54 b 526 10 857 64 719 10 b 46 421 246 10 46 132 b 526 832 46 710 246 832 b 940 686 721 832 858 778 l 940 818 m 613 208 b 940 421 836 208 940 271 b 613 633 940 571 836 633 b 283 421 389 633 283 571 b 613 208 283 271 389 208 "},"ġ":{"ha":1239,"x_min":0,"x_max":0,"o":"m 747 954 l 478 954 l 478 1157 l 747 1157 m 1179 818 l 1179 131 b 646 -347 1179 -203 956 -347 b 133 -282 408 -347 213 -303 l 133 -90 b 593 -149 229 -108 413 -149 b 940 156 839 -149 931 -54 b 526 10 857 64 719 10 b 46 421 246 10 46 132 b 526 832 46 710 246 832 b 940 686 721 832 858 778 l 940 818 m 613 208 b 940 421 836 208 940 271 b 613 633 940 571 836 633 b 283 421 389 633 283 571 b 613 208 283 271 389 208 "},"h":{"ha":1257,"x_min":0,"x_max":0,"o":"m 774 832 b 1199 453 992 832 1196 754 l 1196 0 l 957 0 l 957 363 b 703 626 957 536 899 626 b 297 458 543 626 371 544 l 297 0 l 60 0 l 60 1111 l 297 1111 l 297 675 b 774 832 414 767 575 832 "},"ħ":{"ha":1338,"x_min":0,"x_max":0,"o":"m 853 832 b 1278 453 1071 832 1275 754 l 1275 0 l 1036 0 l 1036 363 b 782 626 1036 536 978 626 b 376 458 622 626 450 544 l 376 0 l 139 0 l 139 885 l 60 885 l 60 1049 l 139 1049 l 139 1111 l 376 1111 l 376 1049 l 726 1049 l 726 885 l 376 885 l 376 675 b 853 832 493 767 654 832 "},"i":{"ha":357,"x_min":0,"x_max":0,"o":"m 297 1111 l 297 904 l 60 904 l 60 1111 m 297 818 l 297 0 l 60 0 l 60 818 "},"ı":{"ha":357,"x_min":0,"x_max":0,"o":"m 297 818 l 297 0 l 60 0 l 60 818 "},"í":{"ha":357,"x_min":0,"x_max":0,"o":"m 449 1207 l 449 1043 l -92 932 l -92 1096 m 297 818 l 297 0 l 60 0 l 60 818 "},"î":{"ha":357,"x_min":0,"x_max":0,"o":"m 467 1096 l 467 932 l 179 1043 l -108 932 l -108 1096 l 179 1207 m 60 818 l 297 818 l 297 0 l 60 0 "},"ï":{"ha":357,"x_min":0,"x_max":0,"o":"m 122 1157 l 122 954 l -124 954 l -124 1157 m 483 1157 l 483 954 l 238 954 l 238 1157 m 297 818 l 297 0 l 60 0 l 60 818 "},"ì":{"ha":357,"x_min":0,"x_max":0,"o":"m 449 932 l -92 1043 l -92 1207 l 449 1096 m 297 818 l 297 0 l 60 0 l 60 818 "},"ī":{"ha":357,"x_min":0,"x_max":0,"o":"m 504 1110 l 504 946 l -147 946 l -147 1110 m 297 818 l 297 0 l 60 0 l 60 818 "},"į":{"ha":357,"x_min":0,"x_max":0,"o":"m 314 954 l 44 954 l 44 1157 l 314 1157 m 200 -87 b 422 -157 200 -157 307 -157 l 422 -319 b 22 -157 163 -319 22 -293 b 133 0 22 -92 63 -46 l 60 0 l 60 818 l 297 818 l 297 0 l 265 0 b 200 -87 236 -24 200 -51 "},"j":{"ha":647,"x_min":0,"x_max":0,"o":"m 589 1111 l 589 904 l 350 904 l 350 1111 m 589 38 b 250 -347 589 -212 514 -347 b 4 -326 168 -347 83 -340 l 4 -135 b 175 -149 72 -143 114 -149 b 350 50 319 -149 350 -122 l 350 818 l 589 818 "},"k":{"ha":1344,"x_min":0,"x_max":0,"o":"m 768 483 l 1299 0 l 968 0 l 576 357 l 297 189 l 297 0 l 60 0 l 60 1111 l 297 1111 l 297 450 l 893 818 l 1299 818 "},"ķ":{"ha":1344,"x_min":0,"x_max":0,"o":"m 768 483 l 1299 0 l 968 0 l 576 357 l 297 189 l 297 0 l 60 0 l 60 1111 l 297 1111 l 297 450 l 893 818 l 1299 818 m 503 -162 l 717 -162 l 717 -312 l 606 -465 l 503 -465 l 581 -312 l 503 -312 "},"l":{"ha":357,"x_min":0,"x_max":0,"o":"m 297 1111 l 297 0 l 60 0 l 60 1111 "},"ĺ":{"ha":357,"x_min":0,"x_max":0,"o":"m 449 1500 l 449 1336 l -92 1225 l -92 1389 m 297 1111 l 297 0 l 60 0 l 60 1111 "},"ľ":{"ha":357,"x_min":0,"x_max":0,"o":"m 467 1503 l 467 1339 l 179 1228 l -108 1339 l -108 1503 l 179 1392 m 60 1111 l 297 1111 l 297 0 l 60 0 "},"ļ":{"ha":357,"x_min":0,"x_max":0,"o":"m 297 1111 l 297 0 l 60 0 l 60 1111 m 286 -162 l 286 -312 l 175 -465 l 72 -465 l 150 -312 l 72 -312 l 72 -162 "},"ł":{"ha":844,"x_min":0,"x_max":0,"o":"m 785 660 l 525 553 l 525 0 l 288 0 l 288 456 l 60 361 l 60 564 l 288 658 l 288 1111 l 525 1111 l 525 756 l 785 863 "},"m":{"ha":1892,"x_min":0,"x_max":0,"o":"m 1479 832 b 1832 458 1663 832 1829 754 l 1829 0 l 1592 0 l 1592 363 b 1393 626 1592 536 1563 626 b 1074 501 1268 626 1146 567 b 1075 458 1075 488 1075 474 l 1072 0 l 835 0 l 835 363 b 636 626 835 536 806 626 b 297 482 499 626 365 556 l 297 0 l 60 0 l 60 818 l 297 818 l 297 685 b 722 832 386 756 519 832 b 1025 682 846 832 963 796 b 1479 832 1131 761 1276 832 "},"n":{"ha":1257,"x_min":0,"x_max":0,"o":"m 774 832 b 1199 453 992 832 1196 754 l 1196 0 l 957 0 l 957 363 b 703 626 957 536 899 626 b 297 458 543 626 371 544 l 297 0 l 60 0 l 60 818 l 297 818 l 297 675 b 774 832 414 767 575 832 "},"ń":{"ha":1257,"x_min":0,"x_max":0,"o":"m 953 1043 l 413 932 l 413 1096 l 953 1207 m 774 832 b 1199 453 992 832 1196 754 l 1196 0 l 957 0 l 957 363 b 703 626 957 536 899 626 b 297 458 543 626 371 544 l 297 0 l 60 0 l 60 818 l 297 818 l 297 675 b 774 832 414 767 575 832 "},"ň":{"ha":1257,"x_min":0,"x_max":0,"o":"m 683 935 l 396 1046 l 396 1210 l 683 1099 l 971 1210 l 971 1046 m 774 832 b 1199 453 992 832 1196 754 l 1196 0 l 957 0 l 957 363 b 703 626 957 536 899 626 b 297 458 543 626 371 544 l 297 0 l 60 0 l 60 818 l 297 818 l 297 675 b 774 832 414 767 575 832 "},"ņ":{"ha":1257,"x_min":0,"x_max":0,"o":"m 774 832 b 1199 453 992 832 1196 754 l 1196 0 l 957 0 l 957 363 b 703 626 957 536 899 626 b 297 458 543 626 371 544 l 297 0 l 60 0 l 60 818 l 297 818 l 297 675 b 774 832 414 767 575 832 m 521 -162 l 735 -162 l 735 -312 l 624 -465 l 521 -465 l 599 -312 l 521 -312 "},"ŋ":{"ha":1257,"x_min":0,"x_max":0,"o":"m 774 832 b 1199 453 992 832 1196 754 l 1196 0 b 810 -360 1196 -240 1082 -360 b 564 -339 728 -360 643 -353 l 564 -154 b 721 -168 632 -162 674 -168 b 957 0 888 -168 957 -142 l 957 363 b 703 626 957 536 899 626 b 297 458 543 626 371 544 l 297 0 l 60 0 l 60 818 l 297 818 l 297 675 b 774 832 414 767 575 832 "},"ñ":{"ha":1257,"x_min":0,"x_max":0,"o":"m 560 1054 b 483 931 501 1054 483 1010 l 281 931 b 499 1222 281 1085 342 1222 b 806 1085 657 1222 694 1085 b 883 1208 865 1085 883 1129 l 1086 1208 b 868 917 1086 1054 1024 917 b 560 1054 708 917 671 1054 m 774 832 b 1199 453 992 832 1196 754 l 1196 0 l 957 0 l 957 363 b 703 626 957 536 899 626 b 297 458 543 626 371 544 l 297 0 l 60 0 l 60 818 l 297 818 l 297 675 b 774 832 414 767 575 832 "},"o":{"ha":1225,"x_min":0,"x_max":0,"o":"m 613 -14 b 46 408 274 -14 46 108 b 613 832 46 710 274 832 b 1179 408 950 832 1179 710 b 613 -14 1179 108 950 -14 m 613 185 b 940 408 832 185 940 239 b 613 633 940 579 832 633 b 283 408 392 633 283 579 b 613 185 283 239 392 185 "},"ó":{"ha":1225,"x_min":0,"x_max":0,"o":"m 882 1207 l 882 1043 l 342 932 l 342 1096 m 613 -14 b 46 408 274 -14 46 108 b 613 832 46 710 274 832 b 1179 408 950 832 1179 710 b 613 -14 1179 108 950 -14 m 613 185 b 940 408 832 185 940 239 b 613 633 940 579 832 633 b 283 408 392 633 283 579 b 613 185 283 239 392 185 "},"ô":{"ha":1225,"x_min":0,"x_max":0,"o":"m 613 1043 l 325 932 l 325 1096 l 613 1207 l 900 1096 l 900 932 m 613 832 b 1179 408 950 832 1179 710 b 613 -14 1179 108 950 -14 b 46 408 274 -14 46 108 b 613 832 46 710 274 832 m 613 185 b 940 408 832 185 940 239 b 613 633 940 579 832 633 b 283 408 392 633 283 579 b 613 185 283 239 392 185 "},"ö":{"ha":1225,"x_min":0,"x_max":0,"o":"m 556 1157 l 556 954 l 310 954 l 310 1157 m 917 1157 l 917 954 l 671 954 l 671 1157 m 613 -14 b 46 408 274 -14 46 108 b 613 832 46 710 274 832 b 1179 408 950 832 1179 710 b 613 -14 1179 108 950 -14 m 613 185 b 940 408 832 185 940 239 b 613 633 940 579 832 633 b 283 408 392 633 283 579 b 613 185 283 239 392 185 "},"ò":{"ha":1225,"x_min":0,"x_max":0,"o":"m 882 932 l 342 1043 l 342 1207 l 882 1096 m 613 -14 b 46 408 274 -14 46 108 b 613 832 46 710 274 832 b 1179 408 950 832 1179 710 b 613 -14 1179 108 950 -14 m 613 185 b 940 408 832 185 940 239 b 613 633 940 579 832 633 b 283 408 392 633 283 579 b 613 185 283 239 392 185 "},"ő":{"ha":1225,"x_min":0,"x_max":0,"o":"m 571 1224 l 571 1054 l 283 943 l 283 1113 m 942 1224 l 942 1054 l 654 943 l 654 1113 m 613 -14 b 46 408 274 -14 46 108 b 613 832 46 710 274 832 b 1179 408 950 832 1179 710 b 613 -14 1179 108 950 -14 m 613 185 b 940 408 832 185 940 239 b 613 633 940 579 832 633 b 283 408 392 633 283 579 b 613 185 283 239 392 185 "},"ō":{"ha":1225,"x_min":0,"x_max":0,"o":"m 938 1110 l 938 946 l 286 946 l 286 1110 m 613 -14 b 46 408 274 -14 46 108 b 613 832 46 710 274 832 b 1179 408 950 832 1179 710 b 613 -14 1179 108 950 -14 m 613 185 b 940 408 832 185 940 239 b 613 633 940 579 832 633 b 283 408 392 633 283 579 b 613 185 283 239 392 185 "},"ø":{"ha":1225,"x_min":0,"x_max":0,"o":"m 835 810 b 1179 408 1047 763 1179 638 b 613 -14 1179 108 950 -14 l 589 -14 l 535 -196 l 329 -196 l 390 8 b 46 408 178 54 46 181 b 613 832 46 710 274 832 l 636 832 l 690 1013 l 896 1013 l 835 810 m 283 408 b 447 200 283 289 338 226 l 576 633 b 283 408 381 626 283 569 m 649 185 b 940 408 844 192 940 249 b 778 618 940 529 886 592 l 649 185 "},"õ":{"ha":1225,"x_min":0,"x_max":0,"o":"m 210 931 b 428 1222 210 1085 271 1222 b 735 1085 586 1222 624 1085 b 813 1208 794 1085 813 1129 l 1015 1208 b 797 917 1015 1054 953 917 b 489 1054 638 917 600 1054 b 413 931 431 1054 413 1010 l 210 931 m 613 -14 b 46 408 274 -14 46 108 b 613 832 46 710 274 832 b 1179 408 950 832 1179 710 b 613 -14 1179 108 950 -14 m 613 185 b 940 408 832 185 940 239 b 613 633 940 579 832 633 b 283 408 392 633 283 579 b 613 185 283 239 392 185 "},"œ":{"ha":2143,"x_min":0,"x_max":0,"o":"m 1524 179 b 1847 293 1688 179 1788 210 l 2083 293 b 1524 -14 2029 85 1826 -14 b 1076 129 1338 -14 1176 31 b 613 -14 978 31 815 -14 b 46 408 274 -14 46 108 b 613 832 46 710 274 832 b 1076 689 814 832 978 789 b 1538 832 1175 789 1339 832 b 2097 353 1849 832 2097 725 l 1214 353 b 1524 179 1240 222 1365 179 m 1536 651 b 1222 504 1374 651 1260 619 l 1843 504 b 1536 651 1803 619 1686 651 m 613 185 b 940 408 832 185 940 239 b 613 633 940 579 832 633 b 283 408 392 633 283 579 b 613 185 283 239 392 185 "},"p":{"ha":1239,"x_min":0,"x_max":0,"o":"m 706 832 b 1193 408 969 832 1193 721 b 706 -14 1193 96 969 -14 b 299 126 529 -14 388 33 l 299 -347 l 60 -347 l 60 818 l 299 818 l 299 692 b 706 832 388 783 529 832 m 626 185 b 956 408 839 185 956 247 b 626 633 956 571 839 633 b 299 408 414 633 299 571 b 626 185 299 247 414 185 "},"þ":{"ha":1244,"x_min":0,"x_max":0,"o":"m 710 832 b 1193 408 954 832 1193 738 b 710 -14 1193 81 954 -14 b 297 138 535 -14 386 32 l 297 -254 l 60 -254 l 60 1111 l 297 1111 l 297 681 b 710 832 386 785 535 832 m 626 185 b 954 408 854 185 954 254 b 626 633 954 563 854 633 b 297 408 399 633 297 563 b 626 185 297 254 399 185 "},"q":{"ha":1239,"x_min":0,"x_max":0,"o":"m 1179 818 l 1179 -347 l 940 -347 l 940 126 b 533 -14 851 33 710 -14 b 46 408 269 -14 46 96 b 533 832 46 721 269 832 b 940 692 710 832 851 783 l 940 818 m 613 185 b 940 408 825 185 940 247 b 613 633 940 571 825 633 b 283 408 400 633 283 571 b 613 185 283 247 400 185 "},"r":{"ha":983,"x_min":0,"x_max":0,"o":"m 717 832 b 938 804 814 832 882 818 l 938 606 b 728 633 860 625 797 633 b 297 490 594 633 442 603 l 297 0 l 60 0 l 60 818 l 297 818 l 297 679 b 717 832 419 789 564 832 "},"ŕ":{"ha":983,"x_min":0,"x_max":0,"o":"m 768 1043 l 228 932 l 228 1096 l 768 1207 m 717 832 b 938 804 814 832 882 818 l 938 606 b 728 633 860 625 797 633 b 297 490 594 633 442 603 l 297 0 l 60 0 l 60 818 l 297 818 l 297 679 b 717 832 419 789 564 832 "},"ř":{"ha":983,"x_min":0,"x_max":0,"o":"m 499 935 l 211 1046 l 211 1210 l 499 1099 l 786 1210 l 786 1046 m 717 832 b 938 804 814 832 882 818 l 938 606 b 728 633 860 625 797 633 b 297 490 594 633 442 603 l 297 0 l 60 0 l 60 818 l 297 818 l 297 679 b 717 832 419 789 564 832 "},"ŗ":{"ha":983,"x_min":0,"x_max":0,"o":"m 717 832 b 938 804 814 832 882 818 l 938 606 b 728 633 860 625 797 633 b 297 490 594 633 442 603 l 297 0 l 60 0 l 60 818 l 297 818 l 297 679 b 717 832 419 789 564 832 m 72 -162 l 286 -162 l 286 -312 l 175 -465 l 72 -465 l 150 -312 l 72 -312 "},"s":{"ha":1222,"x_min":0,"x_max":0,"o":"m 283 288 b 639 167 283 200 374 167 b 938 247 896 167 938 183 b 611 332 938 310 899 314 b 75 578 251 353 75 381 b 617 832 75 792 325 832 b 1149 567 925 832 1149 792 l 910 567 b 603 651 910 635 824 651 b 314 588 378 651 314 635 b 639 507 314 536 357 528 b 1176 257 958 483 1176 475 b 653 -14 1176 26 968 -14 b 46 288 338 -14 46 26 "},"ś":{"ha":1222,"x_min":0,"x_max":0,"o":"m 881 1207 l 881 1043 l 340 932 l 340 1096 m 283 288 b 639 167 283 200 374 167 b 938 247 896 167 938 183 b 611 332 938 310 899 314 b 75 578 251 353 75 381 b 617 832 75 792 325 832 b 1149 567 925 832 1149 792 l 910 567 b 603 651 910 635 824 651 b 314 588 378 651 314 635 b 639 507 314 536 357 528 b 1176 257 958 483 1176 475 b 653 -14 1176 26 968 -14 b 46 288 338 -14 46 26 "},"š":{"ha":1222,"x_min":0,"x_max":0,"o":"m 611 935 l 324 1046 l 324 1210 l 611 1099 l 899 1210 l 899 1046 m 639 507 b 1176 257 958 483 1176 475 b 653 -14 1176 26 968 -14 b 46 288 338 -14 46 26 l 283 288 b 639 167 283 200 374 167 b 938 247 896 167 938 183 b 611 332 938 310 899 314 b 75 578 251 353 75 381 b 617 832 75 792 325 832 b 1149 567 925 832 1149 792 l 910 567 b 603 651 910 635 824 651 b 314 588 378 651 314 635 b 639 507 314 536 357 528 "},"ş":{"ha":1222,"x_min":0,"x_max":0,"o":"m 1176 257 b 690 -14 1176 36 985 -10 l 674 -65 b 919 -161 757 -39 919 -26 b 481 -319 919 -319 694 -346 l 481 -201 b 740 -149 663 -228 740 -201 b 596 -129 740 -115 704 -104 l 514 -49 l 529 -11 b 46 288 265 1 46 61 l 283 288 b 639 167 283 200 374 167 b 938 247 896 167 938 183 b 611 332 938 310 899 314 b 75 578 251 353 75 381 b 617 832 75 792 325 832 b 1149 567 925 832 1149 792 l 910 567 b 603 651 910 635 824 651 b 314 588 378 651 314 635 b 639 507 314 536 357 528 b 1176 257 958 483 1176 475 "},"ș":{"ha":1222,"x_min":0,"x_max":0,"o":"m 283 288 b 639 167 283 200 374 167 b 938 247 896 167 938 183 b 611 332 938 310 899 314 b 75 578 251 353 75 381 b 617 832 75 792 325 832 b 1149 567 925 832 1149 792 l 910 567 b 603 651 910 635 824 651 b 314 588 378 651 314 635 b 639 507 314 536 357 528 b 1176 257 958 483 1176 475 b 653 -14 1176 26 968 -14 b 46 288 338 -14 46 26 m 718 -162 l 718 -312 l 607 -465 l 504 -465 l 582 -312 l 504 -312 l 504 -162 "},"ß":{"ha":1208,"x_min":0,"x_max":0,"o":"m 928 542 b 1163 278 1075 510 1163 438 b 472 0 1163 13 944 0 l 472 199 b 924 307 842 199 924 211 b 472 417 924 404 842 417 l 472 568 b 771 679 697 568 771 578 b 569 788 771 758 699 788 b 297 589 394 788 297 756 l 297 0 l 60 0 l 60 589 b 575 986 60 907 238 986 b 1010 714 833 986 1010 922 b 928 542 1010 643 979 586 "},"t":{"ha":933,"x_min":0,"x_max":0,"o":"m 500 619 l 500 383 b 675 185 500 225 531 185 b 888 199 750 185 792 185 l 888 7 b 608 -14 808 -7 718 -14 b 261 246 397 -14 261 65 l 261 619 l 46 619 l 46 818 l 261 818 l 261 988 l 500 1056 l 500 818 l 888 818 l 888 619 "},"ŧ":{"ha":933,"x_min":0,"x_max":0,"o":"m 500 619 l 500 499 l 788 499 l 788 335 l 501 335 b 675 185 508 217 547 185 b 888 199 750 185 792 185 l 888 7 b 608 -14 808 -7 718 -14 b 261 246 397 -14 261 65 l 261 335 l 121 335 l 121 499 l 261 499 l 261 619 l 46 619 l 46 818 l 261 818 l 261 988 l 500 1056 l 500 818 l 888 818 l 888 619 "},"ť":{"ha":933,"x_min":0,"x_max":0,"o":"m 381 1144 l 93 1256 l 93 1419 l 381 1308 l 668 1419 l 668 1256 m 500 619 l 500 383 b 675 185 500 225 531 185 b 888 199 750 185 792 185 l 888 7 b 608 -14 808 -7 718 -14 b 261 246 397 -14 261 65 l 261 619 l 46 619 l 46 818 l 261 818 l 261 988 l 500 1056 l 500 818 l 888 818 l 888 619 "},"ţ":{"ha":933,"x_min":0,"x_max":0,"o":"m 500 619 l 500 383 b 675 185 500 225 531 185 b 888 199 750 185 792 185 l 888 7 b 657 -14 821 -4 744 -11 l 640 -65 b 886 -161 724 -39 886 -26 b 447 -319 886 -319 661 -346 l 447 -201 b 707 -149 629 -228 707 -201 b 563 -129 707 -115 671 -104 l 481 -49 l 497 -6 b 261 246 351 19 261 99 l 261 619 l 46 619 l 46 818 l 261 818 l 261 988 l 500 1056 l 500 818 l 888 818 l 888 619 "},"ț":{"ha":933,"x_min":0,"x_max":0,"o":"m 500 619 l 500 383 b 675 185 500 225 531 185 b 888 199 750 185 792 185 l 888 7 b 608 -14 808 -7 718 -14 b 261 246 397 -14 261 65 l 261 619 l 46 619 l 46 818 l 261 818 l 261 988 l 500 1056 l 500 818 l 888 818 l 888 619 m 471 -162 l 685 -162 l 685 -312 l 574 -465 l 471 -465 l 549 -312 l 471 -312 "},"u":{"ha":1257,"x_min":0,"x_max":0,"o":"m 1197 818 l 1197 0 l 960 0 l 960 143 b 483 -14 843 51 682 -14 b 58 365 265 -14 61 64 l 61 818 l 300 818 l 300 456 b 554 192 300 282 358 192 b 960 360 714 192 886 274 l 960 818 "},"ú":{"ha":1257,"x_min":0,"x_max":0,"o":"m 897 1043 l 357 932 l 357 1096 l 897 1207 m 1197 818 l 1197 0 l 960 0 l 960 143 b 483 -14 843 51 682 -14 b 58 365 265 -14 61 64 l 61 818 l 300 818 l 300 456 b 554 192 300 282 358 192 b 960 360 714 192 886 274 l 960 818 "},"û":{"ha":1257,"x_min":0,"x_max":0,"o":"m 628 1043 l 340 932 l 340 1096 l 628 1207 l 915 1096 l 915 932 m 1197 818 l 1197 0 l 960 0 l 960 143 b 483 -14 843 51 682 -14 b 58 365 265 -14 61 64 l 61 818 l 300 818 l 300 456 b 554 192 300 282 358 192 b 960 360 714 192 886 274 l 960 818 "},"ü":{"ha":1257,"x_min":0,"x_max":0,"o":"m 571 954 l 325 954 l 325 1157 l 571 1157 m 932 954 l 686 954 l 686 1157 l 932 1157 m 1197 818 l 1197 0 l 960 0 l 960 143 b 483 -14 843 51 682 -14 b 58 365 265 -14 61 64 l 61 818 l 300 818 l 300 456 b 554 192 300 282 358 192 b 960 360 714 192 886 274 l 960 818 "},"ù":{"ha":1257,"x_min":0,"x_max":0,"o":"m 897 932 l 357 1043 l 357 1207 l 897 1096 m 1197 818 l 1197 0 l 960 0 l 960 143 b 483 -14 843 51 682 -14 b 58 365 265 -14 61 64 l 61 818 l 300 818 l 300 456 b 554 192 300 282 358 192 b 960 360 714 192 886 274 l 960 818 "},"ű":{"ha":1257,"x_min":0,"x_max":0,"o":"m 586 1054 l 299 943 l 299 1113 l 586 1224 m 957 1054 l 669 943 l 669 1113 l 957 1224 m 1197 818 l 1197 0 l 960 0 l 960 143 b 483 -14 843 51 682 -14 b 58 365 265 -14 61 64 l 61 818 l 300 818 l 300 456 b 554 192 300 282 358 192 b 960 360 714 192 886 274 l 960 818 "},"ū":{"ha":1257,"x_min":0,"x_max":0,"o":"m 953 946 l 301 946 l 301 1110 l 953 1110 m 1197 818 l 1197 0 l 960 0 l 960 143 b 483 -14 843 51 682 -14 b 58 365 265 -14 61 64 l 61 818 l 300 818 l 300 456 b 554 192 300 282 358 192 b 960 360 714 192 886 274 l 960 818 "},"ų":{"ha":1257,"x_min":0,"x_max":0,"o":"m 1051 -87 b 1274 -157 1051 -157 1158 -157 l 1274 -319 b 874 -157 1014 -319 874 -293 b 985 0 874 -92 914 -46 l 960 0 l 960 143 b 483 -14 843 51 682 -14 b 58 365 265 -14 61 64 l 61 818 l 300 818 l 300 456 b 554 192 300 282 358 192 b 960 360 714 192 886 274 l 960 818 l 1197 818 l 1197 0 l 1117 0 b 1051 -87 1088 -24 1051 -51 "},"ů":{"ha":1257,"x_min":0,"x_max":0,"o":"m 628 917 b 336 1100 410 917 336 985 b 628 1283 336 1215 410 1283 b 919 1100 844 1283 919 1215 b 628 917 919 985 844 917 m 628 1174 b 486 1100 538 1174 486 1156 b 628 1026 486 1044 538 1026 b 768 1100 718 1026 768 1044 b 628 1174 768 1156 718 1174 m 1197 818 l 1197 0 l 960 0 l 960 143 b 483 -14 843 51 682 -14 b 58 365 265 -14 61 64 l 61 818 l 300 818 l 300 456 b 554 192 300 282 358 192 b 960 360 714 192 886 274 l 960 818 "},"v":{"ha":1260,"x_min":0,"x_max":0,"o":"m 1214 818 l 799 0 l 460 0 l 46 818 l 310 818 l 631 168 l 950 818 "},"w":{"ha":1942,"x_min":0,"x_max":0,"o":"m 1896 818 l 1528 0 l 1211 0 l 971 569 l 731 0 l 414 0 l 46 818 l 311 818 l 579 186 l 829 818 l 1113 818 l 1363 188 l 1631 818 "},"ẃ":{"ha":1942,"x_min":0,"x_max":0,"o":"m 1240 1043 l 700 932 l 700 1096 l 1240 1207 m 1896 818 l 1528 0 l 1211 0 l 971 569 l 731 0 l 414 0 l 46 818 l 311 818 l 579 186 l 829 818 l 1113 818 l 1363 188 l 1631 818 "},"ŵ":{"ha":1942,"x_min":0,"x_max":0,"o":"m 971 1043 l 683 932 l 683 1096 l 971 1207 l 1258 1096 l 1258 932 m 1896 818 l 1528 0 l 1211 0 l 971 569 l 731 0 l 414 0 l 46 818 l 311 818 l 579 186 l 829 818 l 1113 818 l 1363 188 l 1631 818 "},"ẅ":{"ha":1942,"x_min":0,"x_max":0,"o":"m 914 954 l 668 954 l 668 1157 l 914 1157 m 1275 954 l 1029 954 l 1029 1157 l 1275 1157 m 1896 818 l 1528 0 l 1211 0 l 971 569 l 731 0 l 414 0 l 46 818 l 311 818 l 579 186 l 829 818 l 1113 818 l 1363 188 l 1631 818 "},"ẁ":{"ha":1942,"x_min":0,"x_max":0,"o":"m 1240 932 l 700 1043 l 700 1207 l 1240 1096 m 1896 818 l 1528 0 l 1211 0 l 971 569 l 731 0 l 414 0 l 46 818 l 311 818 l 579 186 l 829 818 l 1113 818 l 1363 188 l 1631 818 "},"x":{"ha":1331,"x_min":0,"x_max":0,"o":"m 506 408 l 46 818 l 365 818 l 665 547 l 965 818 l 1285 818 l 824 408 l 1285 0 l 965 0 l 665 271 l 365 0 l 46 0 "},"y":{"ha":1288,"x_min":0,"x_max":0,"o":"m 1242 818 l 689 -347 l 426 -347 l 592 0 l 469 0 l 46 818 l 310 818 l 660 143 l 979 818 "},"ý":{"ha":1288,"x_min":0,"x_max":0,"o":"m 914 1043 l 374 932 l 374 1096 l 914 1207 m 1242 818 l 689 -347 l 426 -347 l 592 0 l 469 0 l 46 818 l 310 818 l 660 143 l 979 818 "},"ŷ":{"ha":1288,"x_min":0,"x_max":0,"o":"m 644 1043 l 357 932 l 357 1096 l 644 1207 l 932 1096 l 932 932 m 1242 818 l 689 -347 l 426 -347 l 592 0 l 469 0 l 46 818 l 310 818 l 660 143 l 979 818 "},"ÿ":{"ha":1288,"x_min":0,"x_max":0,"o":"m 588 954 l 342 954 l 342 1157 l 588 1157 m 949 954 l 703 954 l 703 1157 l 949 1157 m 1242 818 l 689 -347 l 426 -347 l 592 0 l 469 0 l 46 818 l 310 818 l 660 143 l 979 818 "},"ỳ":{"ha":1288,"x_min":0,"x_max":0,"o":"m 914 932 l 374 1043 l 374 1207 l 914 1096 m 1242 818 l 689 -347 l 426 -347 l 592 0 l 469 0 l 46 818 l 310 818 l 660 143 l 979 818 "},"z":{"ha":1083,"x_min":0,"x_max":0,"o":"m 1024 619 l 411 199 l 1024 199 l 1024 0 l 60 0 l 60 199 l 672 619 l 60 619 l 60 818 l 1024 818 "},"ź":{"ha":1083,"x_min":0,"x_max":0,"o":"m 811 1043 l 271 932 l 271 1096 l 811 1207 m 1024 619 l 411 199 l 1024 199 l 1024 0 l 60 0 l 60 199 l 672 619 l 60 619 l 60 818 l 1024 818 "},"ž":{"ha":1083,"x_min":0,"x_max":0,"o":"m 542 935 l 254 1046 l 254 1210 l 542 1099 l 829 1210 l 829 1046 m 1024 619 l 411 199 l 1024 199 l 1024 0 l 60 0 l 60 199 l 672 619 l 60 619 l 60 818 l 1024 818 "},"ż":{"ha":1083,"x_min":0,"x_max":0,"o":"m 676 954 l 407 954 l 407 1157 l 676 1157 m 1024 619 l 411 199 l 1024 199 l 1024 0 l 60 0 l 60 199 l 672 619 l 60 619 l 60 818 l 1024 818 "},"⁄":{"ha":724,"x_min":0,"x_max":0,"o":"m 303 -208 l 58 -208 l 419 1000 l 664 1000 "},"*":{"ha":810,"x_min":0,"x_max":0,"o":"m 258 810 l 60 908 l 147 1060 l 331 938 l 317 1110 l 492 1111 l 478 938 l 661 1060 l 750 908 l 551 810 l 750 713 l 663 561 l 478 683 l 492 510 l 318 510 l 332 683 l 147 561 l 60 713 "},"\\":{"ha":724,"x_min":0,"x_max":0,"o":"m 304 1000 l 665 -208 l 421 -208 l 60 1000 "},"·":{"ha":357,"x_min":0,"x_max":0,"o":"m 297 529 l 297 343 l 60 343 l 60 529 "},"•":{"ha":558,"x_min":0,"x_max":0,"o":"m 279 289 b 60 446 129 289 60 338 b 279 601 60 553 129 601 b 499 446 428 601 499 553 b 279 289 499 338 428 289 "},":":{"ha":357,"x_min":0,"x_max":0,"o":"m 297 603 l 297 417 l 60 417 l 60 603 m 297 186 l 297 0 l 60 0 l 60 186 "},",":{"ha":357,"x_min":0,"x_max":0,"o":"m 297 186 l 297 0 l 185 -274 l 71 -274 l 142 0 l 60 0 l 60 186 "},"…":{"ha":1043,"x_min":0,"x_max":0,"o":"m 297 186 l 297 0 l 60 0 l 60 186 m 640 186 l 640 0 l 403 0 l 403 186 m 983 186 l 983 0 l 746 0 l 746 186 "},"!":{"ha":369,"x_min":0,"x_max":0,"o":"m 304 301 l 65 301 l 60 972 l 310 972 m 303 186 l 303 0 l 65 0 l 65 186 "},"¡":{"ha":369,"x_min":0,"x_max":0,"o":"m 65 833 l 303 833 l 303 647 l 65 647 m 60 -139 l 65 532 l 304 532 l 310 -139 "},"#":{"ha":1807,"x_min":0,"x_max":0,"o":"m 1403 568 l 1313 265 l 1581 265 l 1581 68 l 1253 68 l 1171 -208 l 926 -208 l 1008 68 l 607 68 l 525 -208 l 281 -208 l 363 68 l 88 68 l 88 265 l 422 265 l 513 568 l 226 568 l 226 765 l 571 765 l 642 1000 l 886 1000 l 815 765 l 1217 765 l 1288 1000 l 1532 1000 l 1461 765 l 1719 765 l 1719 568 m 1158 568 l 757 568 l 667 265 l 1068 265 "},".":{"ha":357,"x_min":0,"x_max":0,"o":"m 297 186 l 297 0 l 60 0 l 60 186 "},"?":{"ha":1167,"x_min":0,"x_max":0,"o":"m 399 301 b 857 675 399 621 857 497 b 611 776 857 740 790 776 b 310 606 408 776 310 744 l 60 606 b 597 986 60 914 288 986 b 1107 703 911 986 1107 914 b 636 301 1107 406 660 485 m 636 186 l 636 0 l 399 0 l 399 186 "},"¿":{"ha":1167,"x_min":0,"x_max":0,"o":"m 531 647 l 531 833 l 768 833 l 768 647 m 768 532 b 310 158 768 213 310 336 b 556 57 310 93 376 57 b 857 228 758 57 857 89 l 1107 228 b 569 -153 1107 -81 879 -153 b 60 131 256 -153 60 -81 b 531 532 60 428 507 349 "},"\"":{"ha":738,"x_min":0,"x_max":0,"o":"m 290 556 l 79 556 l 60 1000 l 310 1000 m 660 556 l 449 556 l 429 1000 l 679 1000 "},"'":{"ha":369,"x_min":0,"x_max":0,"o":"m 290 556 l 79 556 l 60 1000 l 310 1000 "},";":{"ha":357,"x_min":0,"x_max":0,"o":"m 297 603 l 297 417 l 60 417 l 60 603 m 60 186 l 297 186 l 297 0 l 185 -274 l 71 -274 l 142 0 l 60 0 "},"/":{"ha":724,"x_min":0,"x_max":0,"o":"m 303 -208 l 58 -208 l 419 1000 l 664 1000 "},"_":{"ha":1564,"x_min":0,"x_max":0,"o":"m 1476 -87 l 1476 -274 l 88 -274 l 88 -87 "},"{":{"ha":911,"x_min":0,"x_max":0,"o":"m 60 585 b 265 724 182 585 265 585 b 851 1111 265 1029 354 1111 l 851 901 b 456 626 536 901 456 874 b 276 446 456 460 331 446 l 276 390 b 456 210 331 390 456 376 b 851 -68 456 -40 536 -68 l 851 -278 b 265 113 333 -278 265 -193 b 60 251 265 251 182 251 "},"}":{"ha":911,"x_min":0,"x_max":0,"o":"m 851 251 b 646 113 729 251 646 251 b 60 -278 646 -193 578 -278 l 60 -68 b 456 210 375 -68 456 -40 b 635 390 456 376 581 390 l 635 446 b 456 626 581 446 456 460 b 60 901 456 874 375 901 l 60 1111 b 646 724 557 1111 646 1029 b 851 585 646 585 729 585 l 851 251 "},"[":{"ha":911,"x_min":0,"x_max":0,"o":"m 310 901 l 310 -68 l 851 -68 l 851 -278 l 60 -278 l 60 1111 l 851 1111 l 851 901 "},"]":{"ha":911,"x_min":0,"x_max":0,"o":"m 851 -278 l 60 -278 l 60 -68 l 601 -68 l 601 901 l 60 901 l 60 1111 l 851 1111 "},"(":{"ha":911,"x_min":0,"x_max":0,"o":"m 60 418 b 851 1111 60 950 275 1111 l 851 901 b 310 418 457 901 310 811 b 851 -68 310 24 458 -68 l 851 -278 b 60 418 275 -278 60 -115 "},")":{"ha":911,"x_min":0,"x_max":0,"o":"m 851 418 b 60 -278 851 -115 636 -278 l 60 -68 b 601 418 453 -68 601 24 b 60 901 601 811 454 901 l 60 1111 b 851 418 636 1111 851 950 "},"—":{"ha":1842,"x_min":0,"x_max":0,"o":"m 1754 571 l 1754 374 l 88 374 l 88 571 "},"–":{"ha":1564,"x_min":0,"x_max":0,"o":"m 1476 571 l 1476 374 l 88 374 l 88 571 "},"-":{"ha":1286,"x_min":0,"x_max":0,"o":"m 1199 571 l 1199 374 l 88 374 l 88 571 "},"«":{"ha":1310,"x_min":0,"x_max":0,"o":"m 744 818 l 383 408 l 744 0 l 421 0 l 60 408 l 421 818 m 1250 818 l 889 408 l 1250 0 l 926 0 l 565 408 l 926 818 "},"»":{"ha":1342,"x_min":0,"x_max":0,"o":"m 776 408 l 415 0 l 92 0 l 453 408 l 92 818 l 415 818 m 1282 408 l 921 0 l 597 0 l 958 408 l 597 818 l 921 818 "},"‹":{"ha":804,"x_min":0,"x_max":0,"o":"m 744 818 l 383 408 l 744 0 l 421 0 l 60 408 l 421 818 "},"›":{"ha":804,"x_min":0,"x_max":0,"o":"m 744 408 l 383 0 l 60 0 l 421 408 l 60 818 l 383 818 "},"„":{"ha":682,"x_min":0,"x_max":0,"o":"m 60 186 l 297 186 l 297 0 l 185 -274 l 71 -274 l 142 0 l 60 0 m 622 186 l 622 0 l 510 -274 l 396 -274 l 467 0 l 385 0 l 385 186 "},"“":{"ha":786,"x_min":0,"x_max":0,"o":"m 183 1000 l 388 1000 l 332 556 l 94 556 m 508 1000 l 713 1000 l 657 556 l 419 556 "},"”":{"ha":754,"x_min":0,"x_max":0,"o":"m 278 556 l 74 556 l 129 1000 l 367 1000 m 603 556 l 399 556 l 454 1000 l 692 1000 "},"‘":{"ha":429,"x_min":0,"x_max":0,"o":"m 151 1000 l 356 1000 l 300 556 l 63 556 "},"’":{"ha":440,"x_min":0,"x_max":0,"o":"m 278 556 l 74 556 l 129 1000 l 367 1000 "},"‚":{"ha":357,"x_min":0,"x_max":0,"o":"m 297 186 l 297 0 l 185 -274 l 71 -274 l 142 0 l 60 0 l 60 186 "}," ":{"ha":635,"x_min":0,"x_max":0,"o":""},"¢":{"ha":1301,"x_min":0,"x_max":0,"o":"m 740 267 b 971 404 864 278 944 318 l 1214 404 b 740 67 1179 188 1000 85 l 740 -139 l 574 -139 l 574 67 b 88 486 279 85 88 211 b 574 907 88 763 279 889 l 574 1111 l 740 1111 l 740 907 b 1214 569 1000 889 1179 786 l 971 569 b 740 707 944 656 864 696 l 740 267 m 325 486 b 574 265 325 340 418 279 l 574 708 b 325 486 418 694 325 633 "},"¤":{"ha":1308,"x_min":0,"x_max":0,"o":"m 1221 478 b 1046 142 1221 318 1157 210 l 1219 -32 l 1107 -143 l 885 79 b 654 56 815 63 739 56 b 432 76 574 56 499 63 l 213 -143 l 100 -32 l 269 138 b 88 478 154 204 88 315 b 264 817 88 639 153 749 l 100 981 l 213 1092 l 426 878 b 654 901 494 894 571 901 b 892 876 742 901 821 893 l 1107 1092 l 1219 981 l 1051 811 b 1221 478 1158 743 1221 635 m 325 478 b 654 254 325 308 433 254 b 982 478 874 254 982 308 b 654 703 982 649 874 703 b 325 478 433 703 325 649 "},"$":{"ha":1417,"x_min":0,"x_max":0,"o":"m 1329 299 b 797 -12 1329 57 1117 -6 l 797 -139 l 631 -139 l 631 -12 b 88 335 289 -1 88 76 l 338 335 b 631 188 338 244 401 197 l 631 404 b 117 704 264 429 117 500 b 631 985 117 904 308 976 l 631 1111 l 797 1111 l 797 983 b 1288 654 1104 968 1288 872 l 1038 654 b 797 785 1038 742 965 775 l 797 581 b 1329 299 1128 561 1329 525 m 367 692 b 631 592 367 624 414 606 l 631 788 b 367 692 418 785 367 760 m 797 185 b 1079 290 1013 190 1079 219 b 797 396 1079 363 1035 381 l 797 185 "},"€":{"ha":1203,"x_min":0,"x_max":0,"o":"m 758 915 b 463 688 569 915 490 850 l 954 688 l 954 538 l 449 538 l 449 488 b 449 438 449 471 449 454 l 954 438 l 954 288 l 461 288 b 758 57 490 124 569 57 b 1115 99 861 57 963 71 l 1115 -111 b 721 -153 963 -139 861 -153 b 211 288 403 -153 253 -12 l 88 288 l 88 438 l 199 438 l 199 488 b 199 538 199 504 199 521 l 88 538 l 88 688 l 211 688 b 721 1125 254 978 404 1125 b 1115 1083 861 1125 963 1111 l 1115 874 b 758 915 963 901 861 915 "},"£":{"ha":1203,"x_min":0,"x_max":0,"o":"m 786 915 b 518 589 515 915 496 818 l 954 589 l 954 438 l 529 438 b 338 71 526 257 453 149 l 1115 71 l 1115 -139 l 88 -139 l 88 71 b 285 438 213 169 288 253 l 88 438 l 88 589 l 271 589 b 721 1125 218 939 331 1125 b 1115 1083 861 1125 963 1111 l 1115 874 b 786 915 976 901 889 915 "},"¥":{"ha":1525,"x_min":0,"x_max":0,"o":"m 939 519 l 1308 519 l 1308 369 l 888 369 l 888 269 l 1308 269 l 1308 119 l 888 119 l 888 -139 l 638 -139 l 638 119 l 219 119 l 219 269 l 638 269 l 638 369 l 219 369 l 219 519 l 586 519 l 88 1111 l 392 1111 l 763 668 l 1133 1111 l 1438 1111 "},"+":{"ha":1286,"x_min":0,"x_max":0,"o":"m 1199 374 l 750 374 l 750 0 l 513 0 l 513 374 l 88 374 l 88 571 l 513 571 l 513 944 l 750 944 l 750 571 l 1199 571 "},"−":{"ha":1286,"x_min":0,"x_max":0,"o":"m 1199 571 l 1199 374 l 88 374 l 88 571 "},"×":{"ha":1236,"x_min":0,"x_max":0,"o":"m 815 467 l 1149 274 l 1050 103 l 618 353 l 186 103 l 88 274 l 421 467 l 88 658 l 186 829 l 618 579 l 1050 829 l 1149 658 "},"÷":{"ha":1286,"x_min":0,"x_max":0,"o":"m 761 881 l 761 694 l 524 694 l 524 881 m 1199 571 l 1199 374 l 88 374 l 88 571 m 761 250 l 761 64 l 524 64 l 524 250 "},"=":{"ha":1286,"x_min":0,"x_max":0,"o":"m 1199 793 l 1199 596 l 88 596 l 88 793 m 1199 349 l 1199 151 l 88 151 l 88 349 "},"≠":{"ha":1286,"x_min":0,"x_max":0,"o":"m 801 596 l 726 349 l 1199 349 l 1199 151 l 668 151 l 583 -132 l 339 -132 l 424 151 l 88 151 l 88 349 l 482 349 l 557 596 l 88 596 l 88 793 l 615 793 l 700 1076 l 944 1076 l 860 793 l 1199 793 l 1199 596 "},">":{"ha":1161,"x_min":0,"x_max":0,"o":"m 1074 639 l 1074 306 l 88 111 l 88 321 l 883 472 l 88 624 l 88 833 "},"<":{"ha":1161,"x_min":0,"x_max":0,"o":"m 1074 624 l 278 472 l 1074 321 l 1074 111 l 88 306 l 88 639 l 1074 833 "},"≥":{"ha":1161,"x_min":0,"x_max":0,"o":"m 1074 772 l 1074 471 l 88 269 l 88 476 l 892 621 l 88 765 l 88 972 m 88 199 l 1074 199 l 1074 0 l 88 0 "},"≤":{"ha":1161,"x_min":0,"x_max":0,"o":"m 1074 765 l 269 621 l 1074 476 l 1074 269 l 88 471 l 88 772 l 1074 972 m 88 199 l 1074 199 l 1074 0 l 88 0 "},"±":{"ha":1286,"x_min":0,"x_max":0,"o":"m 1199 751 l 1199 554 l 750 554 l 750 333 l 513 333 l 513 554 l 88 554 l 88 751 l 513 751 l 513 972 l 750 972 l 750 751 m 88 238 l 1199 238 l 1199 40 l 88 40 "},"≈":{"ha":1286,"x_min":0,"x_max":0,"o":"m 88 528 b 393 972 88 806 161 972 b 846 738 642 972 672 738 b 972 972 935 738 972 790 l 1199 972 b 893 528 1199 694 1125 528 b 440 763 644 528 614 763 b 314 528 351 763 314 710 l 88 528 m 88 0 b 393 444 88 278 161 444 b 846 210 642 444 672 210 b 972 444 935 210 972 263 l 1199 444 b 893 0 1199 167 1125 0 b 440 235 644 0 614 235 b 314 0 351 235 314 182 l 88 0 "},"~":{"ha":1286,"x_min":0,"x_max":0,"o":"m 88 250 b 393 694 88 528 161 694 b 846 460 642 694 672 460 b 972 694 935 460 972 513 l 1199 694 b 893 250 1199 417 1125 250 b 440 485 644 250 614 485 b 314 250 351 485 314 432 l 88 250 "},"¬":{"ha":1286,"x_min":0,"x_max":0,"o":"m 1199 101 l 960 101 l 960 374 l 88 374 l 88 571 l 1199 571 "},"∅":{"ha":1603,"x_min":0,"x_max":0,"o":"m 1361 900 b 1500 488 1453 790 1500 647 b 803 -153 1500 128 1260 -153 b 403 -58 643 -153 510 -118 l 236 -225 l 90 -79 l 244 75 b 104 488 151 185 104 329 b 803 1125 104 847 347 1125 b 1201 1032 963 1125 1096 1092 l 1367 1197 l 1513 1051 m 342 488 b 404 235 342 388 363 303 l 1047 878 b 803 926 981 910 899 926 b 342 488 507 926 342 767 m 1261 488 b 1200 739 1261 588 1240 672 l 557 96 b 803 46 625 63 707 46 b 1261 488 1097 46 1261 207 "},"∞":{"ha":1818,"x_min":0,"x_max":0,"o":"m 88 415 b 489 808 88 651 238 808 b 910 567 668 808 786 728 b 1329 808 1033 728 1150 808 b 1731 415 1581 808 1731 651 b 1329 28 1731 172 1593 28 b 908 267 1150 28 1032 107 b 489 28 785 107 668 28 b 88 415 225 28 88 172 m 325 415 b 513 226 325 278 379 226 b 785 417 596 226 686 261 b 513 610 685 574 594 610 b 325 415 393 610 325 549 m 1033 415 b 1306 226 1131 261 1219 226 b 1492 415 1439 226 1492 278 b 1306 610 1492 549 1425 610 b 1033 415 1222 610 1133 574 "},"∫":{"ha":1388,"x_min":0,"x_max":0,"o":"m 88 -10 b 535 275 246 -10 478 -21 l 608 628 b 1300 1111 707 1114 1024 1111 l 1300 913 b 851 628 1142 913 910 924 l 779 275 b 88 -208 681 -211 364 -208 "},"∏":{"ha":1818,"x_min":0,"x_max":0,"o":"m 1731 778 l 1406 778 l 1406 -208 l 1168 -208 l 1168 778 l 650 778 l 650 -208 l 413 -208 l 413 778 l 88 778 l 88 1000 l 1731 1000 "},"∑":{"ha":1203,"x_min":0,"x_max":0,"o":"m 1115 913 l 401 913 l 893 451 l 401 -10 l 1115 -10 l 1115 -208 l 88 -208 l 88 -10 l 579 451 l 88 913 l 88 1111 l 1115 1111 "},"√":{"ha":1883,"x_min":0,"x_max":0,"o":"m 1796 913 l 1382 913 l 1007 -208 l 674 -208 l 443 289 l 88 289 l 88 488 l 600 488 l 835 0 l 1203 1111 l 1796 1111 "},"∂":{"ha":1374,"x_min":0,"x_max":0,"o":"m 393 1111 b 1286 342 869 1083 1286 806 b 632 -208 1286 -60 964 -208 b 88 192 300 -208 88 -97 b 557 583 88 429 222 583 b 1046 382 769 583 931 493 b 360 904 1024 724 707 878 l 393 1111 m 615 -10 b 1003 160 794 -10 935 43 b 576 385 881 317 710 385 b 325 192 428 385 325 340 b 615 -10 325 51 418 -10 "},"%":{"ha":2347,"x_min":0,"x_max":0,"o":"m 511 360 b 88 743 210 360 88 531 b 511 1125 88 954 210 1125 b 936 743 813 1125 936 954 b 511 360 936 531 813 360 m 1114 -97 l 869 -97 l 1231 1111 l 1475 1111 m 511 558 b 697 743 613 558 697 600 b 511 926 697 886 613 926 b 325 743 411 926 325 886 b 511 558 325 600 411 558 m 1835 -111 b 1411 272 1533 -111 1411 60 b 1835 654 1411 483 1533 654 b 2260 272 2136 654 2260 483 b 1835 -111 2260 60 2136 -111 m 1835 88 b 2021 272 1936 88 2021 129 b 1835 456 2021 415 1936 456 b 1649 272 1735 456 1649 415 b 1835 88 1649 129 1735 88 "},"‰":{"ha":3294,"x_min":0,"x_max":0,"o":"m 511 360 b 88 743 210 360 88 531 b 511 1125 88 954 210 1125 b 936 743 813 1125 936 954 b 511 360 936 531 813 360 m 1114 -97 l 869 -97 l 1231 1111 l 1475 1111 m 511 558 b 697 743 613 558 697 600 b 511 926 697 886 613 926 b 325 743 411 926 325 886 b 511 558 325 600 411 558 m 1835 -111 b 1411 272 1533 -111 1411 60 b 1835 654 1411 483 1533 654 b 2260 272 2136 654 2260 483 b 1835 -111 2260 60 2136 -111 m 2782 -111 b 2358 272 2482 -111 2358 60 b 2782 654 2358 483 2482 654 b 3207 272 3085 654 3207 483 b 2782 -111 3207 60 3085 -111 m 1835 88 b 2021 272 1936 88 2021 129 b 1835 456 2021 415 1936 456 b 1649 272 1735 456 1649 415 b 1835 88 1649 129 1735 88 m 2782 88 b 2969 272 2883 88 2969 129 b 2782 456 2969 415 2883 456 b 2597 272 2682 456 2597 415 b 2782 88 2597 129 2682 88 "},"↑":{"ha":1571,"x_min":0,"x_max":0,"o":"m 786 -153 b 88 488 331 -153 88 128 b 786 1125 88 847 331 1125 b 1483 488 1243 1125 1483 847 b 786 -153 1483 128 1243 -153 m 878 611 l 1051 431 l 1185 564 l 785 958 l 388 564 l 519 431 l 693 611 l 693 42 l 878 42 "},"↗":{"ha":1571,"x_min":0,"x_max":0,"o":"m 786 -153 b 88 488 331 -153 88 128 b 786 1125 88 847 331 1125 b 1483 488 1243 1125 1483 847 b 786 -153 1483 128 1243 -153 m 954 525 l 949 267 l 1138 275 l 1135 836 l 575 839 l 565 651 l 824 656 l 421 253 l 551 124 "},"→":{"ha":1571,"x_min":0,"x_max":0,"o":"m 786 -153 b 88 488 331 -153 88 128 b 786 1125 88 847 331 1125 b 1483 488 1243 1125 1483 847 b 786 -153 1483 128 1243 -153 m 904 394 l 724 219 l 857 88 l 1251 488 l 857 885 l 724 753 l 904 578 l 335 578 l 335 394 "},"↘":{"ha":1571,"x_min":0,"x_max":0,"o":"m 786 1125 b 1483 485 1243 1125 1483 844 b 786 -153 1483 125 1243 -153 b 88 485 331 -153 88 125 b 786 1125 88 844 331 1125 m 421 719 l 824 317 l 565 321 l 575 133 l 1135 136 l 1138 697 l 949 706 l 954 447 l 551 849 "},"↓":{"ha":1571,"x_min":0,"x_max":0,"o":"m 786 1125 b 1483 485 1243 1125 1483 844 b 786 -153 1483 125 1243 -153 b 88 485 331 -153 88 125 b 786 1125 88 844 331 1125 m 693 931 l 693 361 l 519 542 l 388 408 l 785 14 l 1185 408 l 1051 542 l 878 361 l 878 931 "},"↙":{"ha":1571,"x_min":0,"x_max":0,"o":"m 785 1125 b 1483 485 1240 1125 1483 844 b 785 -153 1483 125 1240 -153 b 88 485 328 -153 88 125 b 785 1125 88 844 328 1125 m 617 447 l 622 706 l 433 697 l 436 136 l 996 133 l 1006 321 l 747 317 l 1150 719 l 1019 849 "},"←":{"ha":1571,"x_min":0,"x_max":0,"o":"m 785 -153 b 88 488 328 -153 88 128 b 785 1125 88 847 328 1125 b 1483 488 1240 1125 1483 847 b 785 -153 1483 128 1240 -153 m 1236 578 l 667 578 l 847 753 l 714 885 l 319 488 l 714 88 l 847 219 l 667 394 l 1236 394 "},"↖":{"ha":1571,"x_min":0,"x_max":0,"o":"m 785 -153 b 88 488 328 -153 88 128 b 785 1125 88 847 328 1125 b 1483 488 1240 1125 1483 847 b 785 -153 1483 128 1240 -153 m 1150 253 l 747 656 l 1006 651 l 996 839 l 436 836 l 433 275 l 622 267 l 617 525 l 1019 124 "},"↔":{"ha":1571,"x_min":0,"x_max":0,"o":"m 786 -153 b 88 488 331 -153 88 128 b 786 1125 88 847 331 1125 b 1483 488 1243 1125 1483 847 b 786 -153 1483 128 1243 -153 m 1025 885 l 888 753 l 1032 571 l 543 571 l 688 753 l 550 885 l 250 483 l 550 88 l 688 219 l 543 401 l 1032 401 l 888 219 l 1025 88 l 1322 485 "},"↕":{"ha":1571,"x_min":0,"x_max":0,"o":"m 786 -153 b 88 488 331 -153 88 128 b 786 1125 88 847 331 1125 b 1483 488 1243 1125 1483 847 b 786 -153 1483 128 1243 -153 m 388 696 l 519 557 l 701 701 l 701 274 l 519 418 l 388 279 l 788 -21 l 1185 279 l 1051 418 l 871 274 l 871 701 l 1051 557 l 1185 696 l 788 993 "},"◊":{"ha":1288,"x_min":0,"x_max":0,"o":"m 1200 486 l 803 -139 l 486 -139 l 88 486 l 486 1111 l 803 1111 m 957 486 l 644 981 l 329 486 l 644 -8 "},"@":{"ha":1713,"x_min":0,"x_max":0,"o":"m 919 1125 b 1625 547 1429 1125 1625 943 l 1625 -24 l 1386 -24 l 1386 90 b 1018 -37 1307 7 1183 -36 b 543 365 768 -40 543 44 b 1018 768 543 685 768 764 b 1383 646 1182 771 1304 728 b 933 926 1363 901 1106 926 b 325 372 596 926 325 781 b 1265 -201 325 -150 660 -201 l 1251 -400 b 88 372 396 -400 88 -218 b 919 1125 88 861 401 1125 m 1083 161 b 1385 343 1275 161 1375 214 l 1385 389 b 1083 569 1375 517 1275 569 b 781 365 882 569 781 511 b 1083 161 781 219 882 161 "},"&":{"ha":1497,"x_min":0,"x_max":0,"o":"m 1331 0 b 1072 124 1238 44 1151 85 b 547 -14 922 31 747 -14 b 60 268 200 -14 60 96 b 353 542 60 446 208 513 b 272 742 297 604 272 667 b 686 986 272 901 418 986 b 1094 756 911 986 1094 901 b 744 492 1094 624 964 549 b 1017 358 814 454 904 410 b 1174 529 1076 410 1129 468 l 1388 449 b 1240 258 1343 376 1293 313 l 1438 174 m 686 811 b 510 714 579 811 510 782 b 593 588 510 675 533 635 b 857 729 742 619 857 661 b 686 811 857 782 793 811 m 557 185 b 829 240 657 185 747 206 b 481 435 681 314 567 375 b 297 307 379 410 297 375 b 557 185 297 219 399 185 "},"¶":{"ha":1286,"x_min":0,"x_max":0,"o":"m 789 1000 l 789 -208 l 550 -208 l 550 436 b 88 718 290 436 88 453 b 550 1000 88 985 290 1000 m 1199 1000 l 1199 -208 l 961 -208 l 961 1000 "},"§":{"ha":1225,"x_min":0,"x_max":0,"o":"m 1021 269 b 1138 58 1101 222 1138 156 b 628 -224 1138 -178 900 -224 b 97 83 319 -224 97 -153 l 335 83 b 650 -49 335 -26 431 -49 b 900 53 836 -49 900 -28 b 590 172 900 139 857 151 b 118 422 226 197 118 271 b 206 633 118 493 146 560 b 88 843 125 681 88 747 b 597 1125 88 1079 325 1125 b 1129 818 906 1125 1129 1056 l 890 818 b 575 950 890 928 796 950 b 325 849 390 950 325 929 b 635 728 325 763 368 749 b 1107 481 999 700 1107 632 b 1021 269 1107 408 1079 343 m 376 574 b 603 358 263 408 356 379 b 849 328 699 351 781 342 b 622 542 963 493 871 521 b 376 574 526 549 446 558 "},"©":{"ha":1571,"x_min":0,"x_max":0,"o":"m 786 -153 b 88 488 331 -153 88 128 b 786 1125 88 847 331 1125 b 1483 488 1243 1125 1483 847 b 786 -153 1483 128 1243 -153 m 786 -1 b 1332 488 1117 -1 1332 171 b 786 974 1332 804 1118 974 b 238 488 454 974 238 803 b 786 -1 238 171 456 -1 m 383 486 b 788 793 383 706 535 793 b 1189 531 1022 793 1169 718 l 989 531 b 788 629 971 615 872 629 b 581 486 681 629 581 608 b 788 343 581 364 681 343 b 989 442 872 343 971 357 l 1189 442 b 788 179 1169 254 1022 179 b 383 486 535 179 383 267 "},"®":{"ha":1108,"x_min":0,"x_max":0,"o":"m 554 1125 b 1021 706 867 1125 1021 950 b 554 286 1021 461 867 286 b 88 706 242 286 88 461 b 554 1125 88 950 242 1125 m 554 397 b 910 706 771 397 910 497 b 554 1014 910 914 771 1014 b 199 706 336 1014 199 914 b 554 397 199 497 336 397 m 789 754 b 710 631 789 694 758 650 l 778 521 l 665 521 l 606 619 l 453 619 l 453 521 l 358 521 l 358 889 l 649 889 b 789 754 732 889 789 836 m 453 699 l 622 699 b 694 754 650 699 694 699 b 622 810 694 810 650 810 l 453 810 "},"™":{"ha":1506,"x_min":0,"x_max":0,"o":"m 665 1008 l 436 1008 l 436 640 l 315 640 l 315 1008 l 88 1008 l 88 1110 l 665 1110 m 1418 640 l 1297 640 l 1297 963 l 1101 640 l 1014 640 l 819 963 l 819 640 l 699 640 l 699 1110 l 861 1110 l 1058 778 l 1256 1110 l 1418 1110 "},"°":{"ha":1024,"x_min":0,"x_max":0,"o":"m 511 360 b 88 743 210 360 88 531 b 511 1125 88 954 210 1125 b 936 743 813 1125 936 954 b 511 360 936 531 813 360 m 511 558 b 697 743 628 558 697 607 b 511 926 697 879 628 926 b 325 743 396 926 325 879 b 511 558 325 607 396 558 "},"|":{"ha":413,"x_min":0,"x_max":0,"o":"m 325 1000 l 325 -208 l 88 -208 l 88 1000 "},"¦":{"ha":413,"x_min":0,"x_max":0,"o":"m 325 1000 l 325 521 l 88 521 l 88 1000 m 325 271 l 325 -208 l 88 -208 l 88 271 "},"†":{"ha":1286,"x_min":0,"x_max":0,"o":"m 1199 485 l 763 485 l 763 -208 l 525 -208 l 525 485 l 88 485 l 88 682 l 525 682 l 525 1000 l 763 1000 l 763 682 l 1199 682 "},"‡":{"ha":1286,"x_min":0,"x_max":0,"o":"m 763 485 l 763 307 l 1199 307 l 1199 110 l 763 110 l 763 -208 l 525 -208 l 525 110 l 88 110 l 88 307 l 525 307 l 525 485 l 88 485 l 88 682 l 525 682 l 525 1000 l 763 1000 l 763 682 l 1199 682 l 1199 485 "},"^":{"ha":1288,"x_min":0,"x_max":0,"o":"m 957 486 l 644 981 l 329 486 l 88 486 l 486 1111 l 803 1111 l 1200 486 "},"̈":{"ha":0,"x_min":0,"x_max":0,"o":"m -449 1157 l -449 954 l -694 954 l -694 1157 m -87 1157 l -87 954 l -333 954 l -333 1157 "},"̇":{"ha":0,"x_min":0,"x_max":0,"o":"m -87 1157 l -87 954 l -357 954 l -357 1157 "},"̀":{"ha":0,"x_min":0,"x_max":0,"o":"m -87 932 l -628 1043 l -628 1207 l -87 1096 "},"́":{"ha":0,"x_min":0,"x_max":0,"o":"m -87 1207 l -87 1043 l -628 932 l -628 1096 "},"̋":{"ha":0,"x_min":0,"x_max":0,"o":"m -458 1224 l -458 1054 l -746 943 l -746 1113 m -87 1224 l -87 1054 l -375 943 l -375 1113 "},"̂":{"ha":0,"x_min":0,"x_max":0,"o":"m -87 1096 l -87 932 l -375 1043 l -662 932 l -662 1096 l -375 1207 "},"̌":{"ha":0,"x_min":0,"x_max":0,"o":"m -87 1210 l -87 1046 l -375 935 l -662 1046 l -662 1210 l -375 1099 "},"̆":{"ha":0,"x_min":0,"x_max":0,"o":"m -568 1208 b -403 1054 -568 1096 -506 1054 b -239 1208 -300 1054 -239 1096 l -87 1208 b -403 911 -87 967 -231 911 b -718 1208 -575 911 -718 967 "},"̊":{"ha":0,"x_min":0,"x_max":0,"o":"m -379 917 b -671 1100 -597 917 -671 985 b -379 1283 -671 1215 -597 1283 b -87 1100 -162 1283 -87 1215 b -379 917 -87 985 -162 917 m -379 1026 b -239 1100 -289 1026 -239 1044 b -379 1174 -239 1156 -289 1174 b -521 1100 -469 1174 -521 1156 b -379 1026 -521 1044 -469 1026 "},"̃":{"ha":0,"x_min":0,"x_max":0,"o":"m -893 931 b -675 1222 -893 1085 -832 1222 b -368 1085 -517 1222 -479 1085 b -290 1208 -308 1085 -290 1129 l -87 1208 b -306 917 -87 1054 -150 917 b -614 1054 -465 917 -503 1054 b -690 931 -672 1054 -690 1010 l -893 931 "},"̄":{"ha":0,"x_min":0,"x_max":0,"o":"m -87 1110 l -87 946 l -739 946 l -739 1110 "},"̒":{"ha":0,"x_min":0,"x_max":0,"o":"m -301 981 l -301 1131 l -190 1283 l -87 1283 l -165 1131 l -87 1131 l -87 981 "},"̦":{"ha":0,"x_min":0,"x_max":0,"o":"m -87 -78 l -87 -228 l -199 -381 l -301 -381 l -224 -228 l -301 -228 l -301 -78 "},"̧":{"ha":0,"x_min":0,"x_max":0,"o":"m -333 -65 b -87 -161 -250 -39 -87 -26 b -526 -319 -87 -319 -312 -346 l -526 -201 b -267 -149 -344 -228 -267 -201 b -411 -129 -267 -115 -303 -104 l -493 -49 l -474 0 l -312 0 l -333 -65 "},"̨":{"ha":0,"x_min":0,"x_max":0,"o":"m -87 -319 b -487 -157 -347 -319 -487 -293 b -376 0 -487 -92 -447 -46 l -244 0 b -310 -87 -274 -24 -310 -51 b -87 -157 -310 -157 -203 -157 "},"̵":{"ha":0,"x_min":0,"x_max":0,"o":"m -87 554 l -87 390 l -754 390 l -754 554 "},"̶":{"ha":0,"x_min":0,"x_max":0,"o":"m -87 554 l -87 390 l -1476 390 l -1476 554 "},"̷":{"ha":0,"x_min":0,"x_max":0,"o":"m -421 -208 l -665 -208 l -304 1000 l -60 1000 "},"̸":{"ha":0,"x_min":0,"x_max":0,"o":"m -460 -208 l -665 -208 l -304 1000 l -99 1000 "},"´":{"ha":715,"x_min":0,"x_max":0,"o":"m 628 1207 l 628 1043 l 88 932 l 88 1096 "},"˘":{"ha":806,"x_min":0,"x_max":0,"o":"m 238 1208 b 403 1054 238 1096 300 1054 b 567 1208 506 1054 567 1096 l 718 1208 b 403 911 718 967 575 911 b 88 1208 231 911 88 967 "},"ˇ":{"ha":750,"x_min":0,"x_max":0,"o":"m 663 1210 l 663 1046 l 375 935 l 88 1046 l 88 1210 l 375 1099 "},"¸":{"ha":614,"x_min":0,"x_max":0,"o":"m 281 -65 b 526 -161 364 -39 526 -26 b 88 -319 526 -319 301 -346 l 88 -201 b 347 -149 269 -228 347 -201 b 203 -129 347 -115 311 -104 l 121 -49 l 140 0 l 301 0 l 281 -65 "},"ˆ":{"ha":750,"x_min":0,"x_max":0,"o":"m 663 1096 l 663 932 l 375 1043 l 88 932 l 88 1096 l 375 1207 "},"¨":{"ha":782,"x_min":0,"x_max":0,"o":"m 333 1157 l 333 954 l 88 954 l 88 1157 m 694 1157 l 694 954 l 449 954 l 449 1157 "},"˙":{"ha":444,"x_min":0,"x_max":0,"o":"m 357 1157 l 357 954 l 88 954 l 88 1157 "},"`":{"ha":715,"x_min":0,"x_max":0,"o":"m 628 932 l 88 1043 l 88 1207 l 628 1096 "},"˝":{"ha":833,"x_min":0,"x_max":0,"o":"m 375 1224 l 375 1054 l 88 943 l 88 1113 m 746 1224 l 746 1054 l 458 943 l 458 1113 "},"¯":{"ha":826,"x_min":0,"x_max":0,"o":"m 739 1110 l 739 946 l 88 946 l 88 1110 "},"˛":{"ha":575,"x_min":0,"x_max":0,"o":"m 488 -319 b 88 -157 228 -319 88 -293 b 199 0 88 -92 128 -46 l 331 0 b 265 -87 301 -24 265 -51 b 488 -157 265 -157 372 -157 "},"˚":{"ha":758,"x_min":0,"x_max":0,"o":"m 379 917 b 88 1100 161 917 88 985 b 379 1283 88 1215 161 1283 b 671 1100 596 1283 671 1215 b 379 917 671 985 596 917 m 379 1026 b 519 1100 469 1026 519 1044 b 379 1174 519 1156 469 1174 b 238 1100 289 1174 238 1156 b 379 1026 238 1044 289 1026 "},"˜":{"ha":981,"x_min":0,"x_max":0,"o":"m 88 931 b 306 1222 88 1085 149 1222 b 613 1085 464 1222 501 1085 b 690 1208 672 1085 690 1129 l 893 1208 b 675 917 893 1054 831 917 b 367 1054 515 917 478 1054 b 290 931 308 1054 290 1010 l 88 931 "}}}
